<svg width="191" height="25" viewBox="0 0 191 25" fill="none" xmlns="http://www.w3.org/2000/svg">
<path d="M159.801 0.732422H164.313V18.1566C164.313 19.1856 164.792 19.7344 165.681 19.7344H168.826V23.7817H164.587C161.647 23.7817 159.869 21.9981 159.869 19.0484V0.732422H159.801Z" fill="#80002F"/>
<path d="M75.635 20.8996V23.7808H74.1992V16.6465H75.635V19.459H84.1128V20.8996H75.635Z" fill="#80002F"/>
<path d="M74.1992 14.9327V13.4235H78.3698V9.44473H74.1992V7.93555H84.1128V9.44473H79.8055V13.4235H84.1128V14.9327H74.1992Z" fill="#80002F"/>
<path d="M74.1992 6.29337V1.14844H75.635V4.85279H78.4381V1.49143H79.8739V4.85279H82.6771V1.14844H84.1128V6.29337H74.1992Z" fill="#80002F"/>
<path d="M180.927 0.732422C175.321 0.732422 171.903 3.95658 171.697 7.72953H176.21C176.415 6.35755 177.782 4.57397 180.927 4.57397C183.799 4.57397 185.576 6.15175 185.645 8.75851V9.7875H180.038C173.748 9.7875 170.809 12.7373 170.809 17.2648C170.809 21.3807 173.954 24.2619 178.945 24.2619C181.269 24.2619 182.978 23.5073 184.072 22.8213C184.688 22.4097 185.235 21.9295 185.713 21.3121H186.055V23.7817H190.226V9.30731C190.157 4.09378 186.875 0.732422 180.927 0.732422ZM179.355 20.4204C176.62 20.4204 175.321 19.0484 175.321 17.059C175.321 15.001 176.825 13.4232 180.312 13.4232H182.91C184.072 13.4232 184.824 12.8745 185.166 11.9827H185.645V14.315C185.645 18.1566 183.457 20.4204 179.355 20.4204Z" fill="#80002F"/>
<path d="M37.3474 0.732422C30.7839 0.732422 26.0664 5.46576 26.0664 12.4629C26.0664 19.46 30.7839 24.1933 37.3474 24.1933C43.2272 24.1933 46.4406 20.146 47.4661 17.1962H42.7486C41.9965 18.774 40.0138 20.3518 37.3474 20.3518C33.7238 20.3518 31.0574 17.8822 30.5788 14.0406C30.5104 13.4232 30.4421 12.8059 30.4421 12.1199H30.989C31.536 13.286 32.5615 14.0406 34.2708 14.0406H47.9447L48.0131 13.4232C48.0814 13.0117 48.1498 12.4629 48.1498 11.7769C48.1498 5.46576 43.4323 0.732422 37.3474 0.732422ZM30.6472 10.1991C31.3992 6.83774 33.6554 4.50537 37.3474 4.50537C40.8342 4.50537 43.2272 6.76914 43.8425 10.1991H30.6472Z" fill="#80002F"/>
<path d="M61.2107 0.732422C54.6472 0.732422 49.9297 5.46576 49.9297 12.4629C49.9297 19.46 54.6472 24.1933 61.2107 24.1933C67.0905 24.1933 70.3038 20.146 71.3294 17.1962H66.6119C65.8598 18.774 63.8771 20.3518 61.2107 20.3518C57.5871 20.3518 54.9207 17.8822 54.4421 14.0406C54.3737 13.4232 54.3053 12.8059 54.3053 12.1199H54.7839C55.3309 13.286 56.3564 14.0406 58.0657 14.0406H71.7396L71.808 13.4232C71.8763 13.0117 71.9447 12.4629 71.9447 11.7769C72.0131 5.46576 67.2956 0.732422 61.2107 0.732422ZM54.5105 10.1991C55.2625 6.83774 57.5187 4.50537 61.2107 4.50537C64.6975 4.50537 67.0905 6.76914 67.7058 10.1991H54.5105Z" fill="#80002F"/>
<path d="M5.48712 3.00061C5.96571 4.57839 6.99125 5.26438 9.04234 5.19578C9.93115 5.19578 11.572 5.19578 11.572 5.19578V1.14844H4.66668C2.00027 1.21704 0.222656 3.20641 0.222656 5.88177V23.7175H4.73505V10.6837H5.21364L5.35038 11.2325C5.82897 12.8103 6.85451 13.9765 8.9056 13.9765H11.0251V10.2035H6.92288C5.69223 10.2035 4.73505 9.17453 4.73505 8.00834V3.13781V2.17742H5.21364L5.48712 3.00061Z" fill="#80002F"/>
<path d="M13.8242 1.14844H17.858V3.20641H18.3366C19.0887 2.31462 19.8407 1.14844 22.6439 1.14844H25.1736V5.19578H23.1225C19.9775 5.19578 18.405 6.77356 18.405 9.92912V23.7861H13.8926V1.14844H13.8242Z" fill="#80002F"/>
<path d="M123.355 0.732422C116.792 0.732422 112.074 5.46576 112.074 12.4629C112.074 19.46 116.792 24.1933 123.355 24.1933C129.235 24.1933 132.448 20.146 133.474 17.1962H128.756C128.004 18.774 126.022 20.3518 123.355 20.3518C119.732 20.3518 117.065 17.8822 116.587 14.0406C116.518 13.4232 116.45 12.8059 116.45 12.1199H116.997C117.544 13.286 118.569 14.0406 120.279 14.0406H133.953L134.021 13.4232C134.089 13.0117 134.158 12.4629 134.158 11.7769C134.158 5.46576 129.44 0.732422 123.355 0.732422ZM116.655 10.1991C117.407 6.83774 119.663 4.50537 123.355 4.50537C126.842 4.50537 129.235 6.76914 129.85 10.1991H116.655Z" fill="#80002F"/>
<path d="M147.215 0.732422C140.651 0.732422 135.934 5.46576 135.934 12.4629C135.934 19.46 140.651 24.1933 147.215 24.1933C153.094 24.1933 156.308 20.146 157.333 17.1962H152.616C151.864 18.774 149.881 20.3518 147.215 20.3518C143.591 20.3518 140.925 17.8822 140.446 14.0406C140.378 13.4232 140.309 12.8059 140.309 12.1199H140.788C141.335 13.286 142.36 14.0406 144.07 14.0406H157.744L157.812 13.4232C157.88 13.0117 157.949 12.4629 157.949 11.7769C158.085 5.46576 153.368 0.732422 147.215 0.732422ZM140.514 10.1991C141.266 6.83774 143.523 4.50537 147.215 4.50537C150.701 4.50537 153.094 6.76914 153.71 10.1991H140.514Z" fill="#80002F"/>
<path d="M91.4949 3.00061C91.9735 4.57839 92.9991 5.26438 95.0501 5.19578C95.939 5.19578 97.5798 5.19578 97.5798 5.19578V1.14844H90.6745C88.0081 1.21704 86.2305 3.20641 86.2305 5.88177V23.7175H90.7429V10.6837H91.2214L91.3582 11.2325C91.8368 12.8103 92.8623 13.9765 94.9134 13.9765H97.0329V10.2035H92.9307C91.7 10.2035 90.7429 9.17453 90.7429 8.00834V3.13781V2.17742H91.2214L91.4949 3.00061Z" fill="#80002F"/>
<path d="M99.9062 1.14844H103.94V3.20641H104.419C105.171 2.31462 105.923 1.14844 108.726 1.14844H111.256V5.19578H109.205C106.06 5.19578 104.487 6.77356 104.487 9.92912V23.7861H99.9746V1.14844H99.9062Z" fill="#80002F"/>
</svg>
