<svg width="30" height="21" viewBox="0 0 30 21" fill="none" xmlns="http://www.w3.org/2000/svg">
<g clip-path="url(#clip0_5127_43996)">
<mask id="mask0_5127_43996" style="mask-type:alpha" maskUnits="userSpaceOnUse" x="0" y="0" width="30" height="21">
<path d="M26.9897 0.0214844H3.57673C2.05548 0.0214844 0.822266 1.2547 0.822266 2.77595V17.9255C0.822266 19.4467 2.05548 20.6799 3.57673 20.6799H26.9897C28.5109 20.6799 29.7441 19.4467 29.7441 17.9255V2.77595C29.7441 1.2547 28.5109 0.0214844 26.9897 0.0214844Z" fill="white"/>
</mask>
<g mask="url(#mask0_5127_43996)">
<path d="M26.9897 0.0214844H3.57673C2.05548 0.0214844 0.822266 1.2547 0.822266 2.77595V17.9255C0.822266 19.4467 2.05548 20.6799 3.57673 20.6799H26.9897C28.5109 20.6799 29.7441 19.4467 29.7441 17.9255V2.77595C29.7441 1.2547 28.5109 0.0214844 26.9897 0.0214844Z" fill="#CD0B20"/>
<path fill-rule="evenodd" clip-rule="evenodd" d="M0.822266 5.53125H29.7441V15.1719H0.822266V5.53125Z" fill="#FFCB00"/>
<path fill-rule="evenodd" clip-rule="evenodd" d="M13.2182 8.59095V12.0616C13.2182 13.0256 12.2927 13.7969 11.1523 13.7969H8.39788C7.26028 13.7941 6.33203 13.0187 6.33203 12.0588V8.5882C6.33203 7.80042 6.94903 7.1421 7.79741 6.92863C8.05357 6.21247 8.84135 6.85426 9.77511 6.85426C10.7144 6.85426 11.4966 6.2166 11.7528 6.93001C12.5984 7.14899 13.2182 7.80868 13.2182 8.59095Z" fill="#C8B47C"/>
<path fill-rule="evenodd" clip-rule="evenodd" d="M13.2165 9.66211H14.5937V13.7938H13.2165V9.66211ZM4.95312 9.66211H6.33036V13.7938H4.95312V9.66211Z" fill="#B5B5B5"/>
<path fill-rule="evenodd" clip-rule="evenodd" d="M13.2165 12.416H14.5937V13.7932H13.2165V12.416ZM4.95312 12.416H6.33036V13.7932H4.95312V12.416Z" fill="#165C96"/>
<path fill-rule="evenodd" clip-rule="evenodd" d="M13.2165 8.28516H14.5937V9.66239H13.2165V8.28516ZM4.95312 8.28516H6.33036V9.66239H4.95312V8.28516Z" fill="#A0790A"/>
<path fill-rule="evenodd" clip-rule="evenodd" d="M7.70898 8.28516H9.08622V10.351H7.70898V8.28516ZM10.4634 11.0396H11.8407V13.1055H10.4634V11.0396Z" fill="#D20636"/>
<path fill-rule="evenodd" clip-rule="evenodd" d="M10.4629 8.28516H11.8401V10.351H10.4629V8.28516Z" fill="#A18793"/>
<path fill-rule="evenodd" clip-rule="evenodd" d="M7.70898 11.0391H9.08622V13.1049H7.70898V11.0391Z" fill="#FFE100"/>
<path fill-rule="evenodd" clip-rule="evenodd" d="M9.08622 8.28543L7.70898 6.9082H11.8407L10.4634 8.28543H9.08622Z" fill="#B6161A"/>
<path fill-rule="evenodd" clip-rule="evenodd" d="M9.08594 5.53125H10.4621V6.90737H9.08594V5.53125Z" fill="#AC9300"/>
<path d="M26.9905 0.710938H3.57757C2.43663 0.710938 1.51172 1.63585 1.51172 2.77678V17.9263C1.51172 19.0673 2.43663 19.9922 3.57757 19.9922H26.9905C28.1314 19.9922 29.0563 19.0673 29.0563 17.9263V2.77678C29.0563 1.63585 28.1314 0.710938 26.9905 0.710938Z" stroke="black" stroke-opacity="0.1" stroke-width="1.37723"/>
</g>
</g>
<defs>
<clipPath id="clip0_5127_43996">
<rect width="28.9219" height="20.6585" fill="white" transform="translate(0.822266 0.0214844)"/>
</clipPath>
</defs>
</svg>
