<svg width="168" height="22" viewBox="0 0 168 22" fill="none" xmlns="http://www.w3.org/2000/svg">
<path d="M140.73 0.36499H144.708V15.725C144.708 16.6321 145.129 17.1159 145.913 17.1159H148.685V20.6838H144.949C142.357 20.6838 140.79 19.1115 140.79 16.5112V0.36499H140.73Z" fill="white"/>
<path d="M66.5359 18.1411V20.681H65.2703V14.3918H66.5359V16.8712H74.0095V18.1411H66.5359Z" fill="white"/>
<path d="M65.2703 12.8855V11.5551H68.9468V8.04768H65.2703V6.71729H74.0095V8.04768H70.2124V11.5551H74.0095V12.8855H65.2703Z" fill="white"/>
<path d="M65.2703 5.26384V0.728394H66.5359V3.99391H69.007V1.03076H70.2727V3.99391H72.7438V0.728394H74.0095V5.26384H65.2703Z" fill="white"/>
<path d="M159.351 0.36499C154.409 0.36499 151.395 3.2072 151.215 6.5332H155.193C155.373 5.32374 156.579 3.75146 159.351 3.75146C161.883 3.75146 163.45 5.14233 163.51 7.44029V8.34737H158.568C153.023 8.34737 150.431 10.9477 150.431 14.9389C150.431 18.5672 153.204 21.1071 157.603 21.1071C159.653 21.1071 161.159 20.4419 162.124 19.8372C162.666 19.4743 163.148 19.051 163.57 18.5068H163.871V20.6838H167.548V7.92407C167.488 3.32815 164.595 0.36499 159.351 0.36499ZM157.965 17.7206C155.554 17.7206 154.409 16.5112 154.409 14.7575C154.409 12.9433 155.735 11.5524 158.809 11.5524H161.099C162.124 11.5524 162.787 11.0686 163.088 10.2825H163.51V12.3386C163.51 15.725 161.581 17.7206 157.965 17.7206Z" fill="white"/>
<path d="M33.177 0.36499C27.3911 0.36499 23.2324 4.5376 23.2324 10.7058C23.2324 16.874 27.3911 21.0466 33.177 21.0466C38.3603 21.0466 41.193 17.4787 42.097 14.8784H37.9384C37.2754 16.2693 35.5276 17.6602 33.177 17.6602C29.9827 17.6602 27.6322 15.4831 27.2103 12.0967C27.15 11.5524 27.0897 11.0082 27.0897 10.4034H27.5719C28.0541 11.4315 28.9581 12.0967 30.4649 12.0967H42.5189L42.5792 11.5524C42.6395 11.1896 42.6998 10.7058 42.6998 10.1011C42.6998 4.5376 38.5411 0.36499 33.177 0.36499ZM27.2705 8.71021C27.9335 5.74705 29.9224 3.69098 33.177 3.69098C36.2508 3.69098 38.3603 5.68658 38.9027 8.71021H27.2705Z" fill="white"/>
<path d="M53.8223 0.36499C48.0363 0.36499 43.8777 4.5376 43.8777 10.7058C43.8777 16.874 48.0363 21.0466 53.8223 21.0466C59.0056 21.0466 61.8383 17.4787 62.7423 14.8784H58.5837C57.9207 16.2693 56.1728 17.6602 53.8223 17.6602C50.628 17.6602 48.2774 15.4831 47.8555 12.0967C47.7953 11.5524 47.735 11.0082 47.735 10.4034H48.1569C48.639 11.4315 49.5431 12.0967 51.0499 12.0967H63.1039L63.1642 11.5524C63.2245 11.1896 63.2847 10.7058 63.2847 10.1011C63.345 4.5376 59.1864 0.36499 53.8223 0.36499ZM47.9158 8.71021C48.5788 5.74705 50.5677 3.69098 53.8223 3.69098C56.8961 3.69098 59.0056 5.68658 59.548 8.71021H47.9158Z" fill="white"/>
<path d="M4.69941 2.36115C5.1213 3.75202 6.02536 4.35675 7.83347 4.29628C8.61699 4.29628 10.0635 4.29628 10.0635 4.29628V0.728394H3.97617C1.62562 0.788866 0.0585938 2.54257 0.0585938 4.901V20.6239H4.03644V9.13409H4.45833L4.57887 9.61787C5.00076 11.0087 5.90482 12.0368 7.71293 12.0368H9.58131V8.71078H5.96509C4.88022 8.71078 4.03644 7.80369 4.03644 6.77565V2.4821V1.63548H4.45833L4.69941 2.36115Z" fill="white"/>
<path d="M12.0498 0.728394H15.6058V2.54257H16.0276C16.6906 1.75643 17.3536 0.728394 19.8247 0.728394H22.0547V4.29628H20.2466C17.4741 4.29628 16.0879 5.68715 16.0879 8.46889V20.6844H12.1101V0.728394H12.0498Z" fill="white"/>
<path d="M108.606 0.36499C102.82 0.36499 98.6611 4.5376 98.6611 10.7058C98.6611 16.874 102.82 21.0466 108.606 21.0466C113.789 21.0466 116.622 17.4787 117.526 14.8784H113.367C112.704 16.2693 110.956 17.6602 108.606 17.6602C105.411 17.6602 103.061 15.4831 102.639 12.0967C102.579 11.5524 102.518 11.0082 102.518 10.4034H103.001C103.483 11.4315 104.387 12.0967 105.894 12.0967H117.948L118.008 11.5524C118.068 11.1896 118.128 10.7058 118.128 10.1011C118.128 4.5376 113.97 0.36499 108.606 0.36499ZM102.699 8.71021C103.362 5.74705 105.351 3.69098 108.606 3.69098C111.68 3.69098 113.789 5.68658 114.331 8.71021H102.699Z" fill="white"/>
<path d="M129.64 0.36499C123.854 0.36499 119.695 4.5376 119.695 10.7058C119.695 16.874 123.854 21.0466 129.64 21.0466C134.823 21.0466 137.656 17.4787 138.56 14.8784H134.401C133.738 16.2693 131.99 17.6602 129.64 17.6602C126.446 17.6602 124.095 15.4831 123.673 12.0967C123.613 11.5524 123.553 11.0082 123.553 10.4034H123.975C124.457 11.4315 125.361 12.0967 126.867 12.0967H138.922L138.982 11.5524C139.042 11.1896 139.102 10.7058 139.102 10.1011C139.223 4.5376 135.064 0.36499 129.64 0.36499ZM123.733 8.71021C124.396 5.74705 126.385 3.69098 129.64 3.69098C132.714 3.69098 134.823 5.68658 135.366 8.71021H123.733Z" fill="white"/>
<path d="M80.517 2.36115C80.9389 3.75202 81.843 4.35675 83.6511 4.29628C84.4346 4.29628 85.8811 4.29628 85.8811 4.29628V0.728394H79.7938C77.4433 0.788866 75.8762 2.54257 75.8762 4.901V20.6239H79.8541V9.13409H80.276L80.3965 9.61787C80.8184 11.0087 81.7224 12.0368 83.5306 12.0368H85.3989V8.71078H81.7827C80.6978 8.71078 79.8541 7.80369 79.8541 6.77565V2.4821V1.63548H80.276L80.517 2.36115Z" fill="white"/>
<path d="M87.9358 0.728394H91.4917V2.54257H91.9136C92.5766 1.75643 93.2396 0.728394 95.7107 0.728394H97.9407V4.29628H96.1326C93.3601 4.29628 91.9739 5.68715 91.9739 8.46889V20.6844H87.9961V0.728394H87.9358Z" fill="white"/>
</svg>
