<svg width="20" height="19" viewBox="0 0 20 19" fill="none" xmlns="http://www.w3.org/2000/svg">
<path fill-rule="evenodd" clip-rule="evenodd" d="M6.79453 13.5595C7.0253 13.7903 7.37145 13.7518 7.60222 13.5595L11.4484 9.71334C11.7176 9.44411 12.1791 9.40565 12.5253 9.71334C12.8715 10.021 12.833 10.5595 12.5253 10.8672L7.79453 15.521C6.75607 16.5595 5.0253 16.5595 3.98684 15.521L3.94837 15.4826C2.90991 14.4441 2.90991 12.7133 3.94837 11.6749L12.2945 3.32873C13.333 2.29026 15.0638 2.29026 16.1022 3.32873L16.1407 3.36719C17.1791 4.40565 17.1791 6.13642 16.1407 7.17488L16.1022 7.21334C15.9099 7.40565 15.8715 7.67488 16.0253 7.90565C16.2561 8.32873 16.4484 8.79026 16.5638 9.2518C16.6407 9.5595 16.9868 9.63642 17.2176 9.44411C17.5253 9.13642 17.7945 8.82873 17.7945 8.82873C19.7561 6.86719 19.7561 3.67488 17.7945 1.71334H17.7176C15.7561 -0.248197 12.5638 -0.248197 10.6022 1.71334L2.25607 10.021C0.294528 11.9826 0.294528 15.1749 2.25607 17.1364L2.33299 17.2133C4.29453 19.1749 7.44837 19.1749 9.40991 17.2133L14.1791 12.4826C15.4099 11.2518 15.3715 9.2518 14.1022 8.02103C12.8715 6.82873 10.8715 6.90565 9.67914 8.13642L5.90991 11.9056C5.67914 12.1364 5.67914 12.521 5.90991 12.7518L6.79453 13.5595V13.5595Z" fill="#706E6B"/>
</svg>
