<svg width="574" height="472" viewBox="0 0 574 472" fill="none" xmlns="http://www.w3.org/2000/svg">
<path d="M427.489 99.5171H364.374V190.921H427.489V99.5171Z" fill="#E0E0E0"/>
<path d="M424.221 99.5171H361.105V190.921H424.221V99.5171Z" fill="#F5F5F5"/>
<path d="M416.426 109.45H369.026V180.989H416.426V109.45Z" fill="white"/>
<path d="M416.425 180.989C416.425 180.989 416.425 180.863 416.425 180.612C416.425 180.36 416.425 179.983 416.425 179.606C416.425 178.726 416.425 177.343 416.425 175.708C416.425 172.314 416.425 167.285 416.425 160.998C416.425 148.425 416.425 130.446 416.299 109.45L416.425 109.575C401.966 109.575 385.873 109.575 369.026 109.575L369.151 109.45C369.151 136.481 369.151 161.375 369.151 180.989L369.026 180.863C383.484 180.863 395.303 180.863 403.475 180.989C407.624 180.989 410.767 180.989 413.03 180.989C414.162 180.989 414.916 180.989 415.545 180.989C416.048 180.989 416.425 180.989 416.425 180.989C416.425 180.989 416.174 180.989 415.545 180.989C414.916 180.989 414.162 180.989 413.03 180.989C410.893 180.989 407.624 180.989 403.475 180.989C395.177 180.989 383.359 180.989 368.9 181.115H368.774V180.989C368.774 161.25 368.774 136.356 368.774 109.45V109.324H368.9C385.747 109.324 401.841 109.324 416.299 109.324H416.425V109.45C416.425 130.572 416.425 148.425 416.299 161.124C416.299 167.41 416.299 172.439 416.299 175.834C416.299 177.469 416.299 178.852 416.299 179.732C416.299 180.109 416.299 180.486 416.299 180.738C416.425 180.863 416.425 180.989 416.425 180.989Z" fill="#E0E0E0"/>
<path d="M424.346 99.5171C424.346 99.5171 423.969 100.146 423.215 101.152C422.46 102.157 421.455 103.415 420.197 104.923C419.066 106.306 417.934 107.689 417.054 108.57C416.174 109.45 415.671 110.078 415.671 109.953C415.671 109.953 416.048 109.324 416.928 108.318C417.809 107.312 418.814 106.055 419.946 104.672C421.077 103.289 422.083 102.032 422.963 101.026C423.843 100.02 424.346 99.5171 424.346 99.5171Z" fill="#E0E0E0"/>
<path d="M416.677 180.738C419.066 184.509 421.832 187.904 424.975 191.047L416.677 180.738Z" fill="white"/>
<path d="M424.849 191.173C424.849 191.173 424.22 190.67 423.466 189.916C422.586 189.036 421.454 187.778 420.323 186.395C419.191 185.012 418.185 183.629 417.557 182.623C416.928 181.618 416.551 180.989 416.551 180.989C416.551 180.989 417.054 181.618 417.682 182.498C418.437 183.504 419.317 184.761 420.448 186.27C421.58 187.653 422.711 188.91 423.466 189.79C424.472 190.544 424.975 191.047 424.849 191.173Z" fill="#E0E0E0"/>
<path d="M361.105 190.796C363.871 187.401 366.637 184.006 369.403 180.612L361.105 190.796Z" fill="white"/>
<path d="M369.403 180.612C369.529 180.612 367.643 183.001 365.38 185.767C363.117 188.533 361.231 190.796 361.105 190.796C360.979 190.796 362.865 188.407 365.128 185.641C367.391 182.875 369.403 180.612 369.403 180.612Z" fill="#E0E0E0"/>
<path d="M361.105 99.5171C361.231 99.5171 362.991 101.654 365.129 104.295C367.266 107.061 368.9 109.198 368.9 109.324C368.775 109.324 367.014 107.187 364.877 104.546C362.74 101.78 361.105 99.5171 361.105 99.5171Z" fill="#E0E0E0"/>
<path d="M401.589 123.908H385.748V168.919H401.589V123.908Z" fill="#E0E0E0"/>
<path d="M302.012 355.244C296.229 356.879 291.577 361.531 288.811 366.811C286.045 372.218 285.165 378.253 285.039 384.288C284.913 395.98 289.943 408.302 295.852 418.486C306.539 411.319 310.688 396.86 312.322 389.317C314.711 377.624 312.196 354.742 302.012 355.244Z" fill="#F5F5F5"/>
<path d="M282.022 435.962C284.411 429.676 282.65 422.258 278.124 417.103C273.724 412.074 266.934 409.308 260.271 408.93C257.128 408.805 253.733 409.308 251.596 411.571C249.71 413.708 249.458 417.103 250.464 419.743C251.47 422.509 253.607 424.646 255.745 426.532C263.666 432.945 272.215 437.596 282.022 435.962Z" fill="#F5F5F5"/>
<path d="M290.194 463.999C290.32 463.999 290.32 461.107 289.817 456.33C289.566 453.941 288.937 451.049 287.931 448.157C286.925 445.14 285.794 441.871 284.034 438.602C280.765 432.064 275.987 427.035 272.089 424.395C270.078 423.012 268.317 422.257 267.06 421.629C265.803 421.126 265.049 421 265.049 421C264.923 421.251 267.689 422.257 271.461 425.023C275.233 427.789 279.633 432.693 282.776 439.105C284.411 442.248 285.542 445.517 286.674 448.409C287.805 451.3 288.434 453.941 288.811 456.33C289.566 461.107 289.943 464.125 290.194 463.999Z" fill="#E0E0E0"/>
<path d="M302.39 372.846C302.264 372.846 302.013 374.229 301.51 376.618C301.007 379.133 300.378 382.653 299.624 387.054C298.115 395.855 296.104 408.05 294.343 421.629C292.457 435.208 291.2 447.529 290.446 456.456C290.069 460.982 289.817 464.502 289.691 467.017C289.566 469.531 289.566 470.914 289.566 470.914C289.691 470.914 289.817 469.531 290.194 467.017C290.446 464.251 290.949 460.73 291.326 456.456C292.332 447.529 293.715 435.333 295.601 421.755C297.487 408.302 299.247 396.232 300.504 387.179C301.133 382.905 301.636 379.384 302.013 376.618C302.264 374.229 302.39 372.846 302.39 372.846Z" fill="#E0E0E0"/>
<path d="M296.103 442.248C301.887 429.298 314.334 419.491 328.29 416.977C331.81 416.348 336.211 416.474 338.222 419.491C340.234 422.509 338.474 426.532 336.336 429.55C327.41 441.62 310.688 447.403 296.229 443.254" fill="#F5F5F5"/>
<path d="M323.386 426.406C323.386 426.281 322.632 426.532 321.374 426.784C320.117 427.161 318.357 427.789 316.094 428.544C311.693 430.304 305.658 432.944 300.252 437.848C297.612 440.362 295.474 443.128 293.966 445.894C292.457 448.66 291.577 451.426 291.074 453.689C290.571 456.078 290.32 457.964 290.32 459.222C290.32 460.605 290.32 461.233 290.445 461.233C290.697 461.233 290.822 458.341 291.954 453.815C292.583 451.552 293.463 449.038 294.972 446.397C296.48 443.757 298.492 441.117 301.132 438.728C306.287 433.95 312.196 431.184 316.471 429.298C320.746 427.538 323.386 426.532 323.386 426.406Z" fill="#E0E0E0"/>
<path d="M541.524 134.845C541.524 134.845 528.323 130.947 523.042 161.248C517.762 191.548 517.259 208.27 517.259 208.27C517.259 208.27 515.373 214.808 510.595 212.419C505.692 210.03 497.394 201.355 491.61 205.127C485.575 209.024 485.575 217.197 490.227 227.632C494.879 238.193 504.057 261.579 504.937 263.716C505.692 265.854 505.44 269.374 501.92 268.242C498.274 267.111 475.517 253.406 469.608 264.596C463.699 275.786 481.426 303.069 483.312 306.086C485.198 309.104 484.947 310.738 483.689 311.996C482.432 313.253 475.14 307.972 468.476 304.326C461.813 300.68 453.515 297.663 450.623 304.326C447.731 311.116 453.137 333.872 485.575 363.67L501.543 376.494L520.779 369.453C561.138 351.726 573.585 331.986 573.082 324.569C572.579 317.276 563.652 317.402 556.234 318.659C548.691 319.917 540.141 322.683 539.387 321.048C538.507 319.414 538.884 317.779 541.65 315.642C544.416 313.379 569.939 293.388 568.053 280.815C566.167 268.242 540.015 273.9 536.244 273.774C532.472 273.649 533.352 270.254 534.861 268.62C536.369 266.859 552.714 247.749 560.383 239.325C568.179 230.901 570.819 223.232 566.418 217.574C562.144 212.042 551.457 217.574 546.05 218.203C540.644 218.957 541.021 212.168 541.021 212.168C541.021 212.168 546.05 196.2 550.828 165.9C555.606 135.473 541.524 134.971 541.524 134.971" fill="#F5F5F5"/>
<path d="M536.746 162.002C536.746 162.002 536.746 162.254 536.621 162.631C536.621 163.134 536.495 163.762 536.369 164.517C536.118 166.151 535.741 168.666 535.238 171.683C534.358 177.97 532.849 187.022 531.089 198.086C527.442 220.34 522.288 251.143 516.378 285.216C510.469 319.162 505.189 349.966 501.417 372.22C499.531 383.284 498.022 392.336 497.016 398.622C496.513 401.766 496.136 404.154 495.759 405.789C495.633 406.543 495.508 407.172 495.382 407.675C495.256 408.052 495.256 408.304 495.256 408.304C495.256 408.304 495.256 408.052 495.382 407.675C495.508 407.172 495.508 406.543 495.633 405.789C495.885 404.154 496.262 401.64 496.765 398.622C497.645 392.336 499.154 383.284 500.914 372.22C504.56 349.966 509.715 319.162 515.624 285.09C521.533 251.143 526.814 220.34 530.586 198.086C532.472 187.022 533.98 177.97 534.986 171.683C535.489 168.54 535.866 166.151 536.243 164.517C536.369 163.762 536.495 163.134 536.621 162.631C536.746 162.254 536.746 162.002 536.746 162.002Z" fill="#E0E0E0"/>
<path d="M502.675 217.7C502.675 217.7 503.052 218.077 503.555 218.831C504.058 219.586 504.812 220.717 505.818 222.226C507.704 225.118 510.093 229.141 512.733 233.541C515.247 237.942 517.636 241.965 519.396 244.983C520.151 246.366 520.905 247.497 521.408 248.503C521.911 249.257 522.162 249.76 522.037 249.76C522.037 249.76 521.66 249.383 521.157 248.629C520.654 247.874 519.899 246.743 518.893 245.234C517.133 242.342 514.619 238.319 512.104 233.919C509.464 229.518 507.201 225.621 505.315 222.477C504.56 221.094 503.806 219.963 503.303 219.083C502.926 218.203 502.675 217.7 502.675 217.7Z" fill="#E0E0E0"/>
<path d="M524.048 249.634C523.922 249.509 531.969 244.102 542.027 237.565C552.085 231.027 560.258 225.872 560.383 225.998C560.509 226.123 552.462 231.53 542.404 238.068C532.346 244.605 524.174 249.76 524.048 249.634Z" fill="#E0E0E0"/>
<path d="M512.607 301.309C512.607 301.309 513.11 301.057 513.99 300.806C515.122 300.429 516.379 300.052 517.888 299.549C521.156 298.543 525.808 297.16 530.712 295.4C535.741 293.639 540.141 292.005 543.41 290.622C544.919 289.993 546.176 289.49 547.182 289.113C548.062 288.736 548.565 288.61 548.565 288.61C548.565 288.61 548.062 288.862 547.182 289.365C546.302 289.742 545.045 290.371 543.41 291.125C540.267 292.508 535.741 294.268 530.712 296.028C525.683 297.788 521.156 299.172 517.762 300.052C516.127 300.555 514.744 300.806 513.738 301.057C513.236 301.309 512.607 301.435 512.607 301.309Z" fill="#E0E0E0"/>
<path d="M486.958 276.792C486.958 276.792 487.336 277.043 488.09 277.672C488.719 278.301 489.725 279.055 490.982 280.187C493.371 282.324 496.64 285.341 500.16 288.61C503.68 292.005 506.949 295.023 509.212 297.286C510.344 298.417 511.224 299.297 511.853 299.926C512.481 300.555 512.858 300.932 512.733 300.932C512.733 300.932 512.356 300.68 511.601 300.052C510.973 299.423 509.967 298.669 508.709 297.537C506.321 295.4 503.052 292.382 499.531 289.113C496.011 285.719 492.742 282.701 490.479 280.438C489.347 279.307 488.467 278.426 487.839 277.798C487.336 277.169 486.958 276.792 486.958 276.792Z" fill="#E0E0E0"/>
<path d="M471.117 321.174C471.117 321.174 471.62 321.551 472.5 322.306C473.506 323.186 474.637 324.192 476.146 325.449C479.163 328.215 483.438 331.987 488.09 336.261C492.742 340.536 496.891 344.308 499.783 347.2C501.166 348.583 502.423 349.714 503.303 350.594C504.183 351.349 504.56 351.852 504.56 351.852C504.56 351.852 504.057 351.475 503.177 350.72C502.172 349.84 501.04 348.834 499.531 347.577C496.514 344.811 492.239 341.039 487.587 336.764C482.935 332.49 478.786 328.718 475.894 325.826C474.511 324.443 473.254 323.311 472.374 322.431C471.494 321.677 471.117 321.174 471.117 321.174Z" fill="#E0E0E0"/>
<path d="M503.932 350.846C503.932 350.846 504.561 350.594 505.692 350.092C506.949 349.589 508.584 349.086 510.595 348.457C514.744 347.074 520.528 345.062 526.689 342.674C532.975 340.285 538.633 338.022 542.656 336.261C544.542 335.507 546.177 334.753 547.434 334.25C548.565 333.747 549.194 333.495 549.194 333.621C549.194 333.621 548.565 333.998 547.56 334.501C546.428 335.004 544.794 335.759 542.782 336.639C538.759 338.399 533.227 340.788 526.94 343.176C520.654 345.565 514.87 347.451 510.721 348.834C508.584 349.463 506.949 349.966 505.692 350.343C504.686 350.846 503.932 350.972 503.932 350.846Z" fill="#E0E0E0"/>
<path d="M99.3384 403.399C128.382 386.803 137.811 351.976 139.571 320.167C139.823 314.886 140.954 309.354 138.817 304.451C136.68 299.547 131.148 295.901 126.119 297.661C121.97 299.17 119.832 303.571 117.318 307.217C113.923 311.994 109.145 315.766 103.739 317.904C100.219 319.287 95.9438 320.041 92.8006 317.904C88.4001 315.012 88.5258 308.6 89.0287 303.319C90.0346 293.512 90.9147 283.706 91.9205 273.773C92.4234 268.492 92.9263 263.086 91.7948 257.931C90.6632 252.776 87.3943 247.747 82.4909 245.861C77.5875 243.975 71.1754 246.364 69.5409 251.393C68.9123 253.531 69.1637 255.794 68.7865 257.931C68.4093 260.069 67.1521 262.458 65.0147 262.835C62.8773 263.212 60.8657 261.577 59.4827 259.943C54.5793 254.159 51.4361 246.867 48.67 239.701C45.7783 232.534 43.138 225.242 38.7375 218.956C34.337 212.669 27.9249 207.514 20.3812 206.383C12.8375 205.251 4.41375 209.149 1.77346 216.441C-0.866832 223.733 2.77928 231.654 7.05404 238.066C13.2147 247.622 20.7584 256.297 29.4336 263.715C30.9424 265.098 32.7026 266.481 33.0798 268.492C33.9598 272.139 30.188 275.282 26.6676 276.162C22.6443 277.168 18.3696 276.288 14.2205 276.413C10.0715 276.539 5.41957 277.922 3.53365 281.694C0.893361 286.849 4.91666 293.009 8.93996 297.033C17.1123 305.205 26.7933 311.994 37.2288 317.024C41.0006 318.784 44.8982 320.418 47.7899 323.436C50.6817 326.453 52.0647 331.356 49.9273 334.877C47.6642 338.397 42.7608 339.152 38.7375 338.02C34.7142 336.889 31.3196 334.374 27.5477 332.488C20.5069 329.093 11.0773 328.716 5.92248 334.625C2.52783 338.523 1.64773 344.181 2.77928 349.21C3.91083 354.239 6.67685 358.765 9.5686 363.04C20.004 377.75 33.8341 390.072 50.1788 397.489C66.6491 405.033 81.988 408.051 99.3384 403.399Z" fill="#F5F5F5"/>
<path d="M97.5783 427.035C97.5783 414.337 96.1953 399.25 92.9263 382.779C89.6574 366.309 84.754 348.581 78.8448 330.099C77.3361 325.447 75.8273 320.921 74.4443 316.52C72.9356 311.994 71.5526 307.594 69.9181 303.445C66.6492 294.895 62.7516 286.974 58.854 279.556C54.9565 272.138 51.0589 265.223 47.287 258.811C43.5152 252.399 39.8691 246.49 36.3487 241.209C29.3079 230.648 22.6443 222.853 17.8667 217.698C15.4778 215.058 13.5919 213.172 12.2089 211.915C11.5803 211.286 11.0774 210.783 10.7002 210.406C10.323 210.029 10.1973 209.903 10.1973 209.903C10.1973 209.903 10.323 210.155 10.7002 210.406C11.0774 210.783 11.5803 211.286 12.0832 211.915C13.3405 213.298 15.2264 215.309 17.6152 217.824C22.2672 223.105 28.805 230.9 35.8458 241.461C39.3662 246.741 42.8866 252.651 46.6584 259.063C50.4302 265.475 54.3278 272.39 58.0997 279.808C61.9972 287.226 65.7691 295.147 69.038 303.57C70.6725 307.845 72.1812 312.12 73.5642 316.646C75.073 321.172 76.456 325.699 77.9647 330.225C83.8739 348.581 88.903 366.309 92.172 382.779C95.4409 399.124 96.9496 414.211 96.9496 426.91" fill="#E0E0E0"/>
<path d="M69.5405 303.319C69.6663 303.319 69.9177 302.565 70.2949 301.056C70.6721 299.673 71.175 297.536 71.8036 294.895C73.0609 289.74 74.4439 282.448 76.0784 274.527C77.5871 266.606 79.2216 259.314 80.4789 254.159C81.1075 251.519 81.6104 249.507 82.1133 248.124C82.4905 246.741 82.742 245.861 82.6163 245.861C82.4905 245.861 82.2391 246.616 81.7361 247.999C81.2332 249.382 80.6046 251.519 79.8502 254.034C78.3415 259.189 76.707 266.355 75.0726 274.276C73.5638 282.197 72.1808 289.238 71.0493 294.644C70.5464 297.158 70.1692 299.17 69.792 300.804C69.6663 302.439 69.5405 303.319 69.5405 303.319Z" fill="#E0E0E0"/>
<path d="M2.90454 284.334C2.90454 284.46 3.91037 284.586 5.54483 284.963C7.30502 285.34 9.81958 285.717 12.8371 286.346C18.9977 287.603 27.4215 289.615 36.5997 292.255C45.7778 294.895 54.0759 297.661 59.9851 299.799C63.0026 300.805 65.2657 301.81 66.9001 302.439C68.5346 303.068 69.4147 303.445 69.5404 303.319C69.5404 303.193 68.6603 302.816 67.1516 302.062C65.5171 301.308 63.254 300.302 60.2365 299.17C54.3273 296.781 46.155 294.015 36.8511 291.375C27.5472 288.735 19.1235 286.849 12.8371 285.717C9.69386 285.214 7.1793 284.837 5.4191 284.586C3.78464 284.334 2.90454 284.334 2.90454 284.334Z" fill="#E0E0E0"/>
<path d="M92.1716 381.396C92.1716 381.396 92.4231 381.145 92.6745 380.642C93.0517 380.013 93.5546 379.259 94.0576 378.253C95.1891 376.241 96.9493 373.224 98.8352 369.452C102.859 362.034 108.013 351.473 113.545 339.78C119.077 328.087 124.232 317.526 128.004 309.982C129.89 306.336 131.399 303.319 132.53 301.056C133.033 300.05 133.41 299.296 133.788 298.667C134.039 298.164 134.165 297.787 134.165 297.787C134.165 297.787 133.913 298.038 133.662 298.541C133.285 299.17 132.782 299.924 132.279 300.93C131.147 302.942 129.387 305.959 127.501 309.731C123.478 317.149 118.323 327.71 112.791 339.403C107.259 351.096 102.104 361.657 98.3323 369.2C96.4464 372.847 94.9377 375.864 93.8061 378.127C93.3032 379.133 92.926 379.887 92.5488 380.516C92.2974 381.145 92.1716 381.396 92.1716 381.396Z" fill="#E0E0E0"/>
<path d="M4.66528 344.055C4.66528 344.055 4.91674 344.181 5.54538 344.558C6.17402 344.809 7.05412 345.186 8.05994 345.689C10.4488 346.695 13.592 348.078 17.4895 349.713C25.4104 353.107 36.223 357.885 48.2929 363.291C60.3628 368.572 71.1754 373.35 79.222 376.618C83.2453 378.253 86.5143 379.51 88.7774 380.39C89.7832 380.768 90.6633 381.019 91.4177 381.396C92.0463 381.648 92.2978 381.648 92.2978 381.648C92.2978 381.648 92.0463 381.522 91.4177 381.145C90.789 380.893 89.9089 380.516 88.9031 380.013C86.5143 379.007 83.3711 377.624 79.4735 375.99C71.5526 372.595 60.74 367.818 48.6701 362.411C36.6002 357.131 25.7876 352.353 17.741 349.084C13.7177 347.45 10.4488 346.192 8.18567 345.312C7.17984 344.935 6.29975 344.558 5.54538 344.306C5.04247 344.181 4.66528 344.055 4.66528 344.055Z" fill="#E0E0E0"/>
<path d="M188.606 24.2031V127.929H39.618L34.2117 24.9575L188.606 24.2031Z" fill="#E0E0E0"/>
<path d="M34.2104 24.8368L34.2104 127.682L183.198 127.682V24.8368L34.2104 24.8368Z" fill="white"/>
<path d="M183.954 128.432H33.457V24.2031H183.954V128.432ZM34.84 127.049H182.445V25.5861H34.84V127.049Z" fill="#E0E0E0"/>
<path d="M167.106 37.656H50.3047V114.979H167.106V37.656Z" fill="white"/>
<path d="M167.106 37.656C167.106 37.656 166.855 37.656 166.478 37.656C166.1 37.656 165.472 37.656 164.843 37.656C163.334 37.656 161.197 37.656 158.431 37.656C152.773 37.656 144.727 37.656 134.417 37.7817C113.798 37.7817 84.6287 37.9074 50.4306 37.9074L50.8078 37.5303C50.8078 61.1671 50.8078 87.3186 50.8078 114.853L50.4306 114.476C94.4355 114.476 135.046 114.476 167.232 114.602L166.981 114.853C167.106 91.3419 167.106 72.1055 167.106 58.6526C167.106 51.989 167.106 46.7084 167.232 43.0623C167.232 41.3021 167.232 39.9191 167.232 39.039C167.106 38.1589 167.106 37.656 167.106 37.656C167.106 37.656 167.106 38.1589 167.106 39.039C167.106 39.9191 167.106 41.3021 167.106 43.0623C167.106 46.5827 167.106 51.8633 167.232 58.5269C167.232 71.9798 167.358 91.3419 167.358 114.979V115.23H167.106C135.046 115.23 94.4355 115.23 50.3049 115.356H49.9277V114.979C49.9277 87.4443 49.9277 61.2929 49.9277 37.656V37.2788H50.3049C84.7544 37.4045 113.923 37.4045 134.543 37.4045C144.852 37.4045 152.899 37.5303 158.557 37.5303C161.323 37.5303 163.46 37.5303 164.843 37.5303C165.598 37.5303 166.1 37.5303 166.478 37.5303C166.855 37.656 167.106 37.656 167.106 37.656Z" fill="#E0E0E0"/>
<path d="M34.2113 24.5803C34.2113 24.4546 35.2171 25.0832 36.7258 26.2148C38.2346 27.3463 40.3719 28.8551 42.5093 30.6153C44.7724 32.3755 46.7841 34.1357 48.1671 35.3929C49.5501 36.6502 50.4302 37.5303 50.3045 37.5303C50.1787 37.656 46.5326 34.7643 42.1321 31.1182C37.6059 27.7235 34.0855 24.8318 34.2113 24.5803Z" fill="#E0E0E0"/>
<path d="M183.199 24.9575C183.325 25.0833 179.805 28.1007 175.404 31.6211C171.004 35.1415 167.232 37.9075 167.106 37.7818C166.98 37.6561 170.501 34.6386 174.901 31.1182C179.427 27.4721 183.073 24.7061 183.199 24.9575Z" fill="#E0E0E0"/>
<path d="M183.073 127.803C177.541 123.277 172.009 118.876 166.477 114.35L183.073 127.803Z" fill="white"/>
<path d="M166.477 114.224C166.603 114.099 170.375 116.99 175.027 120.637C179.679 124.408 183.199 127.552 183.073 127.677C182.948 127.803 179.176 124.911 174.524 121.265C169.998 117.619 166.352 114.476 166.477 114.224Z" fill="#E0E0E0"/>
<path d="M34.2113 127.677C34.0855 127.551 37.6059 124.534 42.0064 121.014C46.4069 117.493 50.053 114.853 50.1787 114.979C50.3045 115.104 46.7841 118.122 42.3836 121.642C37.9831 125.163 34.337 127.929 34.2113 127.677Z" fill="#E0E0E0"/>
<path d="M73.979 61.7341V87.634H147.404V61.7341H73.979Z" fill="#E0E0E0"/>
<path d="M532.723 0.0634766H453.011V115.608H532.723V0.0634766Z" fill="#E0E0E0"/>
<path d="M528.826 0.0634766H449.114V115.608H528.826V0.0634766Z" fill="#F5F5F5"/>
<path d="M518.767 12.6365H458.921V103.161H518.767V12.6365Z" fill="white"/>
<path d="M518.893 103.035C518.893 103.035 518.893 102.909 518.893 102.532C518.893 102.281 518.893 101.778 518.893 101.275C518.893 100.143 518.893 98.5087 518.893 96.3714C518.893 92.0966 518.893 85.6845 518.893 77.7636C518.893 61.7961 518.893 39.1651 518.767 12.6365L519.019 12.8879C500.663 12.8879 480.42 12.8879 459.172 12.8879L459.424 12.6365C459.424 46.7088 459.424 78.2665 459.424 103.161L459.298 103.035C477.529 103.035 492.49 103.161 502.926 103.161C508.081 103.161 512.23 103.161 514.996 103.161C516.379 103.161 517.384 103.161 518.139 103.161C518.516 103.035 518.893 103.035 518.893 103.035C518.893 103.035 518.516 103.035 517.887 103.035C517.133 103.035 516.127 103.035 514.744 103.035C511.978 103.035 507.955 103.035 502.8 103.035C492.365 103.035 477.403 103.035 459.047 103.161H458.921V103.035C458.921 78.1408 458.921 46.7088 458.921 12.5107V12.2593H459.172C480.42 12.2593 500.788 12.2593 519.019 12.2593H519.27V12.5107C519.27 39.1651 519.145 61.7961 519.145 77.7636C519.145 85.6845 519.145 91.9709 519.145 96.3714C519.145 98.5087 519.145 100.143 519.145 101.275C519.145 101.778 519.145 102.281 519.145 102.532C518.893 102.909 518.893 103.035 518.893 103.035Z" fill="#E0E0E0"/>
<path d="M528.952 0.0634766C528.952 0.0634766 528.449 0.943573 527.569 2.07513C526.688 3.33241 525.305 4.96687 523.797 6.85279C522.288 8.61299 520.905 10.2475 519.899 11.379C518.893 12.5106 518.139 13.2649 518.139 13.1392C518.139 13.1392 518.642 12.3848 519.648 11.1275C520.653 9.87027 522.037 8.2358 523.545 6.47561C525.054 4.71542 526.311 3.08095 527.317 1.82367C528.323 0.692117 528.952 0.0634766 528.952 0.0634766Z" fill="#E0E0E0"/>
<path d="M519.145 102.783C522.162 107.561 525.682 111.962 529.58 115.859L519.145 102.783Z" fill="white"/>
<path d="M529.58 115.859C529.58 115.859 528.826 115.231 527.82 114.225C526.688 113.093 525.305 111.585 523.922 109.824C522.413 108.064 521.282 106.304 520.402 105.047C519.522 103.79 519.145 102.909 519.145 102.909C519.145 102.909 519.773 103.664 520.653 104.921C521.533 106.178 522.791 107.813 524.174 109.699C525.557 111.459 526.94 113.093 527.945 114.225C529.077 115.105 529.706 115.734 529.58 115.859Z" fill="#E0E0E0"/>
<path d="M449.114 115.482C452.634 111.207 456.029 106.932 459.549 102.658L449.114 115.482Z" fill="white"/>
<path d="M459.549 102.658C459.675 102.783 457.412 105.675 454.52 109.196C451.628 112.716 449.239 115.608 449.114 115.482C448.988 115.356 451.251 112.464 454.143 108.944C457.035 105.298 459.423 102.532 459.549 102.658Z" fill="#E0E0E0"/>
<path d="M449.114 0.0634496C449.24 -0.0622785 451.503 2.70374 454.143 6.0984C456.909 9.49306 458.921 12.3848 458.921 12.3848C458.795 12.5105 456.532 9.74451 453.892 6.34985C451.126 2.9552 448.988 0.189178 449.114 0.0634496Z" fill="#E0E0E0"/>
<path d="M500.159 30.9927H480.169V87.9475H500.159V30.9927Z" fill="#E0E0E0"/>
<path d="M549.571 470.915C549.571 471.041 427.112 471.292 276.112 471.292C124.987 471.292 2.52783 471.166 2.52783 470.915C2.52783 470.789 124.987 470.538 276.112 470.538C427.112 470.664 549.571 470.789 549.571 470.915Z" fill="#263238"/>
<path d="M395.931 253.406C397.943 260.95 395.302 269.499 389.393 274.654C385.621 278.049 380.592 280.061 377.072 283.707C372.546 288.484 371.288 295.902 373.3 302.189C375.312 308.475 380.215 313.63 386.124 316.396C394.171 320.294 404.229 319.916 412.024 315.516C421.705 309.984 427.363 299.046 428.872 287.981C430.255 276.917 427.992 265.728 425.1 254.915" fill="#263238"/>
<path d="M518.39 448.664C528.448 447.03 537.878 450.047 547.81 452.31C550.451 452.939 553.342 453.442 555.983 452.687C560.257 451.556 563.401 447.407 564.029 443.006C564.658 439.234 563.652 435.211 561.515 431.942C560.635 430.559 559.503 429.302 558.12 428.548C556.611 427.667 554.977 427.416 553.342 427.29C547.307 426.662 541.147 428.045 535.615 430.685C530.083 433.325 525.179 437.097 520.904 441.372C518.767 443.383 519.396 445.898 518.39 448.664Z" fill="#263238"/>
<path d="M314.459 286.349C312.825 276.794 313.076 266.987 315.088 257.432C316.094 252.78 317.477 248.254 320.117 244.23C320.997 242.847 322.254 241.464 323.763 240.71C325.9 239.83 328.541 240.584 330.301 242.219C332.564 244.356 333.444 247.625 333.444 250.642C333.318 253.786 332.312 256.677 331.181 259.569C327.283 269.753 321.123 278.051 314.459 286.349Z" fill="#263238"/>
<path d="M509.338 322.685C511.601 324.319 562.269 433.2 562.269 433.2C558.246 431.439 553.72 431.062 549.445 431.942L546.679 432.697C541.776 433.954 537.124 436.091 532.849 438.983L518.39 448.79C517.259 448.161 516.504 446.904 516.379 445.647V445.269L477.151 378.005L509.338 322.685Z" fill="#66CC99"/>
<path d="M319.614 149.431L333.067 226C337.467 236.309 388.01 298.796 388.01 298.796L371.288 352.482L304.904 261.581C298.743 255.043 295.348 246.242 295.6 237.189L298.24 155.34L319.614 149.431Z" fill="#FFBE9D"/>
<path d="M391.404 286.852L426.105 289.492L456.406 294.144C456.406 294.144 509.463 308.1 509.463 313.884C509.463 315.77 495.004 361.912 486.832 389.572C483.312 401.516 481.929 409.94 481.929 409.94L509.337 470.918H378.832V414.969C378.832 414.969 370.031 341.67 371.539 331.611C373.048 321.553 391.404 286.852 391.404 286.852Z" fill="#66CC99"/>
<path d="M303.269 118.502C303.52 110.707 304.275 102.912 305.658 95.2423C305.909 94.1108 306.287 92.8535 307.418 92.7278C308.801 92.602 309.43 94.2365 309.681 95.6195C310.938 104.798 310.436 114.353 308.55 123.405" fill="#EB996E"/>
<path d="M318.734 280.691C333.57 267.364 334.073 244.356 332.816 226C332.69 224.617 332.564 223.108 333.444 222.102C334.827 220.09 338.348 220.845 339.731 222.856C341.114 224.868 340.988 227.634 340.862 230.023C341.616 227.886 344.885 227.886 346.394 229.52C347.903 231.155 348.154 233.543 348.406 235.806C348.532 237.818 348.783 239.955 348.909 241.967L392.411 283.457C392.411 283.457 393.668 279.686 396.811 281.823C399.954 283.96 402.092 288.612 402.092 288.612L371.414 355.5L314.585 286.349C314.459 286.223 316.219 282.829 318.734 280.691Z" fill="#66CC99"/>
<path d="M377.7 326.959C373.3 332.868 369.654 339.406 367.768 346.447C365.882 353.488 365.756 361.283 368.396 368.072C372.042 377.753 381.221 385.171 391.405 386.68" fill="#66CC99"/>
<path d="M518.39 448.664L516.756 470.918H548.942L556.486 431.565C546.679 431.062 536.998 434.08 529.203 440.115L518.39 448.664Z" fill="#FFBE9D"/>
<path d="M333.821 275.788C333.821 275.788 334.073 275.159 334.576 274.028C335.079 272.896 335.707 271.262 336.462 269.25C337.216 267.238 338.096 264.724 338.85 261.958C339.605 259.192 340.233 256.049 340.736 252.78C341.239 249.511 341.491 246.368 341.491 243.476C341.491 240.584 341.491 237.944 341.365 235.806C341.239 233.669 340.988 231.909 340.862 230.652C340.736 229.394 340.611 228.766 340.736 228.766C340.736 228.766 340.988 229.394 341.114 230.652C341.365 231.909 341.616 233.669 341.868 235.806C342.119 237.944 342.245 240.584 342.245 243.476C342.245 246.368 341.994 249.511 341.491 252.905C340.988 256.174 340.233 259.318 339.479 262.084C338.725 264.85 337.845 267.364 336.964 269.376C336.084 271.387 335.33 273.022 334.827 274.153C334.198 275.159 333.821 275.788 333.821 275.788Z" fill="#263238"/>
<path d="M343.251 264.095C343.125 264.095 343.754 262.838 344.634 260.952C345.514 258.94 346.52 256.174 347.149 253.031C347.903 249.888 348.155 246.996 348.28 244.859C348.406 242.721 348.406 241.464 348.532 241.464C348.657 241.464 348.783 242.721 348.783 244.985C348.783 247.122 348.532 250.139 347.777 253.283C347.023 256.551 345.891 259.317 345.011 261.203C344.131 263.089 343.377 264.095 343.251 264.095Z" fill="#263238"/>
<path d="M394.422 298.922C394.296 298.922 394.799 298.042 395.176 296.533C395.554 295.024 395.428 292.887 394.799 290.75C394.171 288.487 393.165 286.601 392.662 285.218C392.033 283.835 391.656 282.955 391.782 282.829C391.907 282.829 392.285 283.583 393.039 284.966C393.793 286.349 394.799 288.235 395.428 290.498C396.056 292.761 396.056 295.024 395.553 296.659C395.051 298.168 394.422 298.922 394.422 298.922Z" fill="#263238"/>
<path d="M386.753 387.434C386.753 387.434 386.502 387.309 386.25 387.183C385.873 386.932 385.37 386.554 384.741 386.177C383.484 385.297 381.598 384.04 379.461 382.28C377.323 380.519 374.809 378.382 372.42 375.49C370.031 372.599 368.019 369.078 367.014 364.803C366.008 360.654 365.882 356.505 366.259 352.859C366.636 349.213 367.517 345.944 368.397 343.304C369.277 340.664 370.157 338.652 370.786 337.143C371.163 336.389 371.414 335.886 371.54 335.509C371.666 335.132 371.791 335.006 371.791 335.006C371.791 335.006 371.54 335.76 370.911 337.269C370.408 338.652 369.528 340.789 368.774 343.43C368.019 346.07 367.139 349.213 366.762 352.859C366.385 356.505 366.511 360.529 367.517 364.552C368.522 368.575 370.534 372.096 372.797 374.987C375.06 377.753 377.575 380.017 379.712 381.777C381.85 383.537 383.61 384.92 384.867 385.8C385.37 386.177 385.873 386.554 386.25 386.932C386.627 387.309 386.879 387.434 386.753 387.434Z" fill="#263238"/>
<path d="M458.04 399.882C458.04 399.882 457.915 400.007 457.538 400.133C457.16 400.259 456.657 400.385 455.903 400.51C454.52 400.887 452.383 401.139 449.742 401.265C444.588 401.516 437.044 400.259 430.129 395.984C423.34 391.584 418.939 385.423 416.927 380.645C415.922 378.256 415.293 376.245 414.916 374.736C414.79 373.982 414.664 373.479 414.539 373.102C414.539 372.724 414.413 372.473 414.539 372.473C414.539 372.473 414.79 373.227 415.167 374.61C415.544 375.993 416.173 378.005 417.305 380.394C419.442 385.046 423.717 391.206 430.38 395.481C437.044 399.756 444.462 401.013 449.617 400.887C452.257 400.887 454.269 400.636 455.777 400.385C457.286 400.007 458.04 399.756 458.04 399.882Z" fill="#263238"/>
<path d="M478.031 424.273C477.905 424.273 479.54 417.232 481.803 408.808C484.066 400.259 485.952 393.343 486.204 393.469C486.329 393.469 484.695 400.51 482.432 408.934C480.169 417.483 478.157 424.398 478.031 424.273Z" fill="#263238"/>
<path d="M495.633 409.562C495.507 409.688 490.478 401.39 484.317 391.08C478.283 380.771 473.379 372.347 473.631 372.347C473.756 372.221 478.785 380.519 484.946 390.829C490.981 401.013 495.759 409.437 495.633 409.562Z" fill="#263238"/>
<path d="M543.787 429.93C543.787 430.056 541.901 430.182 539.135 430.936C537.752 431.313 535.992 431.816 534.232 432.571C532.471 433.325 530.46 434.331 528.574 435.462C526.688 436.72 524.928 437.977 523.545 439.36C522.162 440.743 520.904 442 519.899 443.132C518.013 445.395 517.133 447.029 517.007 446.904C517.007 446.904 517.133 446.527 517.635 445.772C518.013 445.018 518.767 444.012 519.647 442.88C520.527 441.623 521.784 440.366 523.168 438.983C524.676 437.6 526.311 436.217 528.322 435.085C530.208 433.828 532.22 432.948 534.106 432.194C535.992 431.439 537.626 430.936 539.135 430.685C540.644 430.433 541.775 430.182 542.655 430.182C543.41 429.93 543.787 429.805 543.787 429.93Z" fill="#263238"/>
<path d="M549.948 422.387C549.948 422.513 547.937 422.261 544.668 422.513C543.033 422.638 541.147 423.016 539.136 423.518C537.124 424.147 534.861 424.901 532.598 425.907C530.46 427.039 528.449 428.296 526.814 429.679C525.18 431.062 523.797 432.319 522.665 433.577C520.528 435.966 519.522 437.726 519.396 437.726C519.396 437.726 519.648 437.223 520.025 436.468C520.276 436.091 520.528 435.588 520.905 435.085C521.282 434.583 521.659 433.954 522.288 433.325C523.294 432.068 524.677 430.685 526.437 429.302C528.071 427.919 530.083 426.662 532.346 425.404C534.609 424.273 536.872 423.518 539.01 423.016C541.147 422.513 543.033 422.261 544.668 422.135C545.548 422.01 546.176 422.135 546.931 422.135C547.559 422.135 548.188 422.135 548.565 422.261C549.445 422.261 549.948 422.261 549.948 422.387Z" fill="#263238"/>
<g opacity="0.3">
<path d="M415.922 374.988C412.904 380.645 415.419 387.435 418.185 393.218C420.322 397.619 422.585 402.145 426.483 405.288C430.255 408.305 435.284 409.688 440.062 409.06C444.839 408.431 449.365 405.665 452.131 401.642C436.164 401.768 420.699 390.829 415.419 375.742" fill="black"/>
</g>
<g opacity="0.3">
<path d="M473.631 372.347C471.368 377.753 473.128 385.171 475.391 390.452C477.78 395.858 480.295 401.768 478.409 407.3C478.031 408.305 477.529 409.437 477.654 410.443C477.78 411.574 478.912 412.58 479.917 412.077C480.42 411.826 480.672 411.071 480.923 410.568C482.683 405.162 484.444 399.756 486.33 394.475" fill="black"/>
</g>
<path d="M354.692 301.311C354.566 301.311 355.069 296.785 355.949 291.253C356.829 285.721 357.709 281.32 357.835 281.32C357.961 281.32 357.458 285.846 356.578 291.378C355.698 296.91 354.818 301.311 354.692 301.311Z" fill="#FAFAFA"/>
<path d="M341.491 298.545C341.365 298.67 339.228 295.653 336.21 292.132C333.193 288.612 330.552 286.098 330.678 285.972C330.804 285.846 333.696 288.235 336.713 291.755C339.605 295.15 341.616 298.419 341.491 298.545Z" fill="#FAFAFA"/>
<path d="M352.806 266.107C352.932 266.107 352.304 266.987 351.423 268.37C350.418 269.753 349.035 271.513 347.4 273.399C345.766 275.285 344.257 276.92 343 278.177C341.868 279.308 341.114 280.063 340.988 279.937C340.862 279.811 343.628 276.794 346.897 273.022C350.166 269.25 352.681 265.981 352.806 266.107Z" fill="#FAFAFA"/>
<path d="M348.406 250.265C348.28 250.391 347.526 248.756 346.143 247.122C344.76 245.487 343.251 244.607 343.377 244.356C343.502 244.23 345.137 244.984 346.646 246.619C348.029 248.505 348.532 250.265 348.406 250.265Z" fill="#FAFAFA"/>
<path d="M336.964 260.072C336.964 260.198 335.581 260.575 333.695 260.952C331.809 261.204 330.301 261.329 330.301 261.204C330.301 261.078 331.684 260.701 333.569 260.323C335.33 259.946 336.838 259.821 336.964 260.072Z" fill="#FAFAFA"/>
<path d="M365.882 274.028C365.631 274.028 366.133 271.388 365.505 268.119C364.876 264.975 363.242 262.712 363.493 262.587C363.619 262.461 365.505 264.598 366.133 267.993C366.762 271.388 366.008 274.028 365.882 274.028Z" fill="#FAFAFA"/>
<path d="M381.346 290.624C381.22 290.75 379.837 288.11 377.323 285.469C374.808 282.955 372.168 281.572 372.294 281.446C372.294 281.32 375.185 282.452 377.826 285.092C380.34 287.732 381.472 290.624 381.346 290.624Z" fill="#FAFAFA"/>
<path d="M356.452 319.541C356.452 319.667 353.938 320.673 350.669 320.547C347.4 320.421 344.885 319.29 344.885 319.164C344.885 318.913 347.4 319.793 350.669 319.918C353.938 319.918 356.452 319.29 356.452 319.541Z" fill="#FAFAFA"/>
<path d="M368.145 325.451C368.02 325.325 368.9 322.433 369.78 318.787C370.66 315.141 370.911 312.124 371.163 312.124C371.289 312.124 371.289 315.267 370.408 318.913C369.528 322.685 368.271 325.451 368.145 325.451Z" fill="#FAFAFA"/>
<path d="M393.542 326.456C393.416 326.582 390.901 324.067 388.01 320.924C385.118 317.781 382.855 315.015 382.981 314.889C383.106 314.764 385.621 317.278 388.513 320.421C391.404 323.565 393.667 326.331 393.542 326.456Z" fill="#FAFAFA"/>
<path d="M405.36 355.751C405.235 355.877 403.349 354.242 401.211 351.979C399.074 349.716 397.439 347.83 397.565 347.704C397.691 347.579 399.577 349.213 401.714 351.476C403.977 353.739 405.486 355.625 405.36 355.751Z" fill="#FAFAFA"/>
<path d="M383.358 358.643C383.484 358.768 381.346 360.654 378.329 362.415C375.311 364.175 372.545 365.055 372.545 364.929C372.42 364.803 375.06 363.672 378.077 361.912C380.969 360.151 383.232 358.391 383.358 358.643Z" fill="#FAFAFA"/>
<path d="M393.542 386.554C393.291 386.554 394.045 383.16 394.422 379.011C394.799 374.862 394.674 371.467 394.925 371.467C395.051 371.467 395.554 374.862 395.177 379.011C394.674 383.285 393.668 386.554 393.542 386.554Z" fill="#FAFAFA"/>
<path d="M431.638 363.797C431.512 363.923 428.872 362.037 426.231 359.02C423.591 356.002 422.082 353.111 422.208 352.985C422.334 352.859 424.094 355.625 426.734 358.643C429.249 361.66 431.763 363.672 431.638 363.797Z" fill="#FAFAFA"/>
<path d="M445.593 375.742C445.468 375.616 447.354 372.976 449.491 369.707C451.628 366.312 453.263 363.546 453.388 363.672C453.514 363.798 452.257 366.689 450.12 370.084C447.856 373.353 445.719 375.742 445.593 375.742Z" fill="#FAFAFA"/>
<path d="M443.456 346.699C443.456 346.824 440.565 346.196 437.044 345.316C433.524 344.435 430.758 343.43 430.884 343.304C430.884 343.178 433.775 343.807 437.296 344.687C440.816 345.567 443.582 346.447 443.456 346.699Z" fill="#FAFAFA"/>
<path d="M433.398 397.744C433.272 397.744 433.272 395.104 433.398 391.835C433.649 388.566 433.901 385.926 434.027 385.926C434.152 385.926 434.152 388.566 434.027 391.835C433.901 395.104 433.524 397.744 433.398 397.744Z" fill="#FAFAFA"/>
<path d="M442.199 415.221C442.073 415.095 443.33 412.58 443.833 409.06C444.336 405.539 443.707 402.648 443.959 402.648C444.085 402.648 444.965 405.539 444.462 409.186C443.959 412.832 442.324 415.346 442.199 415.221Z" fill="#FAFAFA"/>
<path d="M419.442 411.323C419.316 411.323 418.939 408.431 419.568 404.785C420.196 401.264 421.705 398.624 421.831 398.75C421.956 398.876 420.825 401.516 420.196 404.911C419.442 408.431 419.568 411.323 419.442 411.323Z" fill="#FAFAFA"/>
<path d="M398.697 420.249C398.571 420.375 396.056 418.238 392.788 415.723C389.519 413.209 386.878 411.197 387.004 411.071C387.13 410.946 390.022 412.706 393.29 415.22C396.434 417.735 398.822 420.124 398.697 420.249Z" fill="#FAFAFA"/>
<path d="M412.653 395.607C412.778 395.732 409.384 397.744 405.235 399.881C401.086 402.145 397.691 403.779 397.565 403.528C397.44 403.402 400.834 401.39 404.983 399.253C409.132 397.115 412.653 395.355 412.653 395.607Z" fill="#FAFAFA"/>
<path d="M456.28 450.927C456.28 450.927 456.029 451.053 455.526 451.179C455.023 451.304 454.143 451.43 453.137 451.556C451.126 451.933 448.108 452.184 444.336 452.184C440.564 452.184 436.164 451.556 431.386 450.298C426.609 449.041 421.454 446.904 416.676 443.886C411.773 440.869 407.749 437.097 404.48 433.451C401.211 429.679 398.823 425.907 397.062 422.513C395.302 419.118 394.296 416.352 393.668 414.34C393.291 413.334 393.165 412.58 393.039 412.077C392.913 411.574 392.788 411.323 392.913 411.197C392.913 411.197 393.039 411.448 393.165 411.951C393.291 412.454 393.542 413.209 393.919 414.214C394.548 416.226 395.679 418.992 397.44 422.261C399.2 425.53 401.589 429.302 404.858 432.948C408.127 436.594 412.15 440.24 416.927 443.258C421.705 446.275 426.734 448.287 431.512 449.544C436.29 450.801 440.69 451.43 444.336 451.556C448.108 451.681 451 451.43 453.137 451.179C454.143 451.053 455.023 450.927 455.526 450.801C456.029 450.927 456.28 450.927 456.28 450.927Z" fill="#263238"/>
<path d="M418.813 444.389C418.688 444.389 418.185 441.623 419.442 438.48C420.574 435.337 422.837 433.451 422.962 433.577C423.088 433.702 421.202 435.588 420.071 438.732C418.813 441.749 418.939 444.389 418.813 444.389Z" fill="#FAFAFA"/>
<path d="M408.378 440.115C408.504 440.24 406.618 441.246 405.109 443.258C403.6 445.269 403.223 447.281 403.097 447.281C402.972 447.281 402.972 445.018 404.606 442.881C406.24 440.617 408.378 439.863 408.378 440.115Z" fill="#FAFAFA"/>
<path d="M448.234 463.751C448.234 463.877 445.342 463.626 442.45 461.865C439.559 460.105 438.05 457.591 438.176 457.465C438.301 457.339 439.936 459.477 442.828 461.237C445.594 463.123 448.234 463.626 448.234 463.751Z" fill="#FAFAFA"/>
<path d="M454.395 428.925C454.52 428.925 454.143 431.565 452.132 433.954C450.12 436.343 447.605 437.097 447.605 436.971C447.48 436.846 449.743 435.84 451.629 433.451C453.64 431.314 454.269 428.925 454.395 428.925Z" fill="#FAFAFA"/>
<path d="M471.997 454.951C471.871 454.825 473.505 452.687 475.014 449.796C476.523 446.904 477.403 444.389 477.529 444.389C477.654 444.389 477.151 447.155 475.517 450.047C474.008 453.065 472.122 455.076 471.997 454.951Z" fill="#FAFAFA"/>
<path d="M495.256 458.345C495.382 458.471 492.993 459.477 490.73 461.362C488.467 463.248 487.084 465.26 486.832 465.134C486.706 465.009 487.838 462.745 490.227 460.86C492.741 458.848 495.256 458.219 495.256 458.345Z" fill="#FAFAFA"/>
<path d="M477.528 428.548C477.277 428.548 476.271 424.901 473.882 420.878C471.619 416.729 468.979 413.963 469.23 413.837C469.23 413.837 469.985 414.466 470.99 415.598C471.996 416.729 473.254 418.489 474.511 420.627C475.642 422.764 476.523 424.65 477.025 426.159C477.403 427.542 477.528 428.548 477.528 428.548Z" fill="#FAFAFA"/>
<path d="M481.049 391.081C481.049 391.207 478.409 391.961 475.14 392.841C471.745 393.595 469.105 394.098 468.979 393.973C468.979 393.847 471.619 393.092 474.888 392.212C478.157 391.458 480.923 390.955 481.049 391.081Z" fill="#FAFAFA"/>
<path d="M470.236 379.891C470.11 380.017 468.35 378.005 466.339 375.49C464.327 372.976 462.818 370.838 462.944 370.713C463.07 370.587 464.83 372.599 466.841 375.113C468.979 377.628 470.488 379.765 470.236 379.891Z" fill="#FAFAFA"/>
<path d="M496.765 373.227C496.765 373.353 493.999 373.227 490.73 372.473C487.461 371.718 484.946 370.587 484.946 370.461C485.072 370.335 487.587 371.09 490.856 371.844C494.124 372.598 496.765 372.976 496.765 373.227Z" fill="#FAFAFA"/>
<path d="M515.624 372.85C515.498 372.724 516.504 370.461 517.51 367.569C518.516 364.678 519.27 362.289 519.396 362.289C519.522 362.289 519.144 364.803 518.139 367.695C517.133 370.838 515.75 372.976 515.624 372.85Z" fill="#FAFAFA"/>
<path d="M511.349 398.499C511.349 398.624 508.709 397.996 505.817 396.361C502.925 394.727 501.165 392.715 501.291 392.589C501.417 392.464 503.428 394.224 506.194 395.858C508.96 397.367 511.475 398.247 511.349 398.499Z" fill="#FAFAFA"/>
<path d="M523.671 397.618C523.545 397.618 524.174 394.224 525.054 390.2C525.934 386.177 526.94 382.782 527.065 382.908C527.191 382.908 526.563 386.303 525.682 390.326C524.677 394.475 523.797 397.744 523.671 397.618Z" fill="#FAFAFA"/>
<path d="M513.361 426.159C513.235 426.284 511.224 423.77 508.961 420.627C506.697 417.483 504.937 414.843 505.063 414.717C505.189 414.592 507.2 417.106 509.463 420.249C511.852 423.518 513.612 426.159 513.361 426.159Z" fill="#FAFAFA"/>
<path d="M530.837 415.346C530.711 415.472 529.454 413.209 527.694 410.569C525.934 408.054 524.173 406.168 524.299 406.042C524.425 405.917 526.436 407.551 528.197 410.191C530.083 412.832 531.088 415.221 530.837 415.346Z" fill="#FAFAFA"/>
<path d="M547.182 412.832C547.056 412.957 545.422 410.443 543.159 407.551C540.896 404.659 539.01 402.396 539.136 402.27C539.261 402.145 541.399 404.156 543.662 407.174C545.925 410.066 547.434 412.706 547.182 412.832Z" fill="#FAFAFA"/>
<path d="M543.41 423.644C543.158 423.644 543.284 421.507 541.901 419.369C540.518 417.232 538.506 416.478 538.506 416.352C538.506 416.226 539.135 416.352 539.889 416.729C540.644 417.106 541.65 417.861 542.404 418.992C543.158 420.124 543.535 421.381 543.535 422.261C543.661 423.141 543.41 423.644 543.41 423.644Z" fill="#FAFAFA"/>
<path d="M530.586 438.606C530.46 438.606 530.46 438.229 530.46 437.852C530.334 437.474 530.083 436.846 529.58 436.469C529.077 436.091 528.448 435.966 527.945 435.966C527.442 435.966 527.191 436.091 527.191 435.966C527.191 435.84 527.317 435.588 527.945 435.463C528.448 435.337 529.328 435.337 530.083 435.84C530.837 436.343 530.963 437.223 530.963 437.726C530.963 438.354 530.711 438.606 530.586 438.606Z" fill="#FAFAFA"/>
<path d="M399.828 462.368C399.828 462.494 396.559 461.237 393.542 458.345C390.524 455.328 389.267 452.059 389.519 452.059C389.644 451.933 391.153 454.95 394.045 457.842C396.937 460.734 399.954 462.117 399.828 462.368Z" fill="#FAFAFA"/>
<path d="M319.74 150.311C317.728 131.201 314.082 113.222 313.076 94.4881C313.076 93.608 312.95 92.4765 312.196 91.8478C311.19 91.0935 309.556 91.7221 308.927 92.8537C308.298 93.9852 308.298 95.3682 308.298 96.6255C308.298 106.558 306.664 116.491 303.269 125.92C301.132 131.955 298.24 137.864 296.606 144.151C294.971 150.437 297.989 152.575 300.88 158.358" fill="#FFBE9D"/>
<path d="M255.618 74.4972C255.493 74.6229 248.452 68.8394 239.777 61.6729C231.227 54.3807 224.312 48.4715 224.438 48.3458C224.563 48.22 231.604 54.0035 240.279 61.17C248.829 68.4623 255.744 74.3715 255.618 74.4972Z" fill="#263238"/>
<path d="M291.451 65.9477C291.325 65.9477 290.571 54.7579 289.817 40.9278C289.062 27.0978 288.685 15.908 288.936 15.908C289.062 15.908 289.817 27.0978 290.571 40.9278C291.2 54.7579 291.577 65.9477 291.451 65.9477Z" fill="#263238"/>
<path d="M268.569 57.9014C268.443 57.9014 266.18 51.6149 263.665 43.6941C261.151 35.7732 259.139 29.3611 259.39 29.2354C259.516 29.2354 261.779 35.5218 264.294 43.4426C266.808 51.4892 268.82 57.9014 268.569 57.9014Z" fill="#263238"/>
<path d="M248.201 86.3156C248.075 86.4413 243.8 84.6811 238.519 82.1666C233.239 79.7777 228.964 77.6404 229.09 77.5146C229.216 77.3889 233.49 79.1491 238.771 81.6637C244.052 84.0525 248.326 86.1899 248.201 86.3156Z" fill="#263238"/>
<path d="M215.134 71.8571C215.134 71.9828 214.128 72.1085 212.745 71.8571C211.488 71.7313 210.482 71.4799 210.482 71.2284C210.482 71.1027 211.488 70.977 212.871 71.2284C214.128 71.4799 215.26 71.7313 215.134 71.8571Z" fill="#263238"/>
<path d="M260.145 21.1888C260.019 21.1888 259.768 20.183 259.768 18.9257C259.768 17.6684 259.893 16.6626 260.145 16.6626C260.27 16.6626 260.522 17.6684 260.522 18.9257C260.522 20.183 260.396 21.1888 260.145 21.1888Z" fill="#263238"/>
<path d="M335.959 38.9164C336.084 39.0421 330.301 45.7057 323.009 53.7523C315.716 61.7989 309.681 68.3367 309.556 68.211C309.43 68.0853 315.213 61.4217 322.506 53.3751C329.798 45.2028 335.833 38.7906 335.959 38.9164Z" fill="#263238"/>
<path d="M345.136 29.7381C345.262 29.8638 344.634 30.7439 343.628 31.7498C342.622 32.7556 341.742 33.3842 341.616 33.2585C341.49 33.1328 342.119 32.2527 343.125 31.2468C344.131 30.241 345.011 29.6124 345.136 29.7381Z" fill="#263238"/>
<path d="M367.516 61.9246C367.516 61.9246 366.888 62.3017 365.756 62.9304C364.624 63.559 362.99 64.4391 360.978 65.4449C356.955 67.4566 351.172 70.2226 344.759 72.8629C338.347 75.5032 332.312 77.6406 328.038 79.1493C325.9 79.9037 324.14 80.4066 322.883 80.7838C321.625 81.161 320.997 81.2867 320.997 81.2867C320.997 81.2867 321.625 81.0352 322.883 80.5323C324.14 80.0294 325.9 79.4008 327.912 78.7721C332.187 77.2634 338.096 75.0003 344.508 72.36C350.92 69.7197 356.704 67.0794 360.853 65.0678C362.864 64.1877 364.499 63.3076 365.756 62.8047C366.888 62.176 367.516 61.9246 367.516 61.9246Z" fill="#263238"/>
<path d="M349.16 92.8535C349.16 92.9792 347.903 93.3564 345.765 93.9851C343.628 94.6137 340.736 95.2423 337.467 95.7453C334.198 96.2482 331.181 96.6254 329.044 96.7511C326.906 96.8768 325.523 96.8768 325.523 96.8768C325.523 96.7511 326.906 96.6254 329.044 96.3739C331.181 96.1224 334.198 95.7453 337.342 95.1166C340.611 94.6137 343.502 93.9851 345.64 93.4822C347.777 93.105 349.16 92.8535 349.16 92.8535Z" fill="#263238"/>
<path d="M365.882 89.8362C365.882 89.9619 364.247 90.2134 362.235 90.2134C360.224 90.2134 358.589 90.0876 358.589 89.8362C358.589 89.7104 360.224 89.459 362.235 89.459C364.247 89.459 365.882 89.5847 365.882 89.8362Z" fill="#263238"/>
<path d="M301.006 158.107C295.977 154.335 293.337 147.671 294.343 141.51C294.971 137.739 296.857 134.344 298.366 130.824C299.875 127.303 301.006 123.406 300.126 119.634C299.749 118.251 299.12 116.868 299.12 115.359C299.12 113.85 300 112.216 301.509 112.216C302.641 112.216 303.521 112.97 304.275 113.85C306.664 116.868 308.676 125.794 307.418 132.332" fill="#FFBE9D"/>
<path d="M307.293 132.458C307.167 132.458 307.419 131.452 307.544 129.566C307.544 127.68 307.544 125.04 306.916 121.897C306.539 120.262 306.161 118.502 305.407 116.742C305.03 115.862 304.653 114.982 304.024 114.227C303.395 113.473 302.641 112.719 301.635 112.593C300.629 112.467 299.875 113.347 299.498 114.353C299.121 115.359 299.372 116.491 299.749 117.622C300.126 118.754 300.504 119.885 300.629 121.143C300.755 122.4 300.755 123.657 300.504 124.914C299.624 130.069 296.858 134.093 295.475 138.242C294.72 140.253 294.343 142.265 294.343 144.151C294.343 146.037 294.594 147.797 295.097 149.431C296.103 152.575 297.612 154.712 298.869 156.095C300.126 157.478 300.881 157.981 300.881 158.107C300.881 158.107 300.629 157.981 300.252 157.729C299.875 157.478 299.246 156.975 298.618 156.346C297.36 155.089 295.6 152.826 294.594 149.683C294.092 148.048 293.714 146.288 293.714 144.276C293.714 142.265 294.092 140.253 294.846 138.116C296.229 133.967 298.869 129.818 299.749 124.914C300.001 123.657 300.001 122.526 299.875 121.268C299.749 120.137 299.372 119.005 298.995 117.874C298.618 116.742 298.366 115.485 298.869 114.227C299.121 113.599 299.372 113.096 299.875 112.719C300.378 112.342 301.007 112.09 301.635 112.09C302.893 112.216 303.773 113.096 304.401 113.976C305.03 114.856 305.533 115.736 305.91 116.742C306.664 118.628 307.042 120.388 307.419 122.023C308.047 125.292 308.047 128.058 307.922 129.818C307.796 130.698 307.796 131.452 307.67 131.955C307.419 132.207 307.293 132.458 307.293 132.458Z" fill="#EB996E"/>
<path d="M471.746 234.547C472.374 238.193 475.895 240.959 479.541 241.21C483.187 241.462 486.833 239.576 488.971 236.558C491.108 233.541 491.862 229.643 491.359 225.997C490.605 220.717 487.085 215.562 482.055 214.053C476.901 212.418 470.614 215.31 469.231 220.465L463.322 228.637L471.746 234.547Z" fill="#263238"/>
<path d="M464.705 218.453C467.094 199.343 453.264 181.992 433.902 180.106C415.671 178.346 399.452 191.925 396.686 210.03C394.297 225.871 392.286 241.964 392.286 247.748C392.537 265.35 402.847 272.139 406.996 274.151C408.002 274.654 410.516 275.157 411.648 275.282C411.773 275.282 411.773 275.408 411.773 275.408L407.876 295.525C406.116 308.726 413.534 320.545 426.735 322.43C439.937 324.316 450.372 314.258 452.384 300.931L464.705 218.453Z" fill="#FFBE9D"/>
<path d="M399.829 220.339C400.081 220.716 402.47 219.459 405.361 219.962C408.379 220.339 410.265 222.225 410.642 221.848C410.768 221.722 410.516 220.968 409.762 220.214C408.882 219.333 407.373 218.453 405.613 218.202C403.727 217.95 402.092 218.453 401.087 218.956C400.081 219.585 399.704 220.214 399.829 220.339Z" fill="#263238"/>
<path d="M426.232 226.123C426.484 226.5 428.872 225.243 431.764 225.746C434.782 226.123 436.667 228.009 437.045 227.632C437.17 227.506 436.919 226.752 436.165 225.997C435.284 225.117 433.776 224.237 432.016 223.986C430.13 223.734 428.495 224.237 427.489 224.74C426.484 225.243 426.106 225.872 426.232 226.123Z" fill="#263238"/>
<path d="M415.922 240.204C415.922 240.079 414.162 239.45 411.27 238.57C410.516 238.318 409.887 238.067 409.762 237.564C409.636 236.935 410.139 236.181 410.642 235.427C411.648 233.667 412.653 231.906 413.785 230.02C418.06 222.225 421.329 215.813 421.077 215.687C420.7 215.562 417.054 221.722 412.653 229.518C411.648 231.403 410.642 233.289 409.636 235.05C409.259 235.93 408.63 236.81 408.756 237.941C408.882 238.57 409.385 239.073 409.887 239.199C410.39 239.45 410.768 239.45 411.145 239.576C414.036 240.079 415.922 240.33 415.922 240.204Z" fill="#263238"/>
<path d="M411.774 275.534C411.774 275.534 423.089 278.174 438.679 271.636C438.679 271.636 431.89 286.095 410.642 280.94L411.774 275.534Z" fill="#EB996E"/>
<path d="M416.174 247.497C417.431 246.239 419.443 245.736 421.329 246.239C422.586 246.617 423.843 247.371 424.472 248.502C425.101 249.634 425.101 251.143 424.22 252.023C423.215 253.029 421.58 253.029 420.197 252.4C418.814 251.771 417.808 250.64 416.677 249.634C416.425 249.383 416.048 249.005 415.922 248.628C415.797 248.251 415.797 247.748 416.048 247.497" fill="#EB996E"/>
<path d="M424.472 243.473C423.969 243.348 423.466 246.616 420.449 248.502C417.306 250.388 413.911 249.508 413.911 250.011C413.785 250.263 414.54 250.765 416.048 251.017C417.431 251.268 419.569 251.143 421.455 250.011C423.341 248.88 424.346 247.119 424.598 245.736C424.849 244.353 424.598 243.473 424.472 243.473Z" fill="#263238"/>
<path d="M428.244 216.442C428.37 217.322 431.387 217.322 434.908 218.328C438.302 219.208 441.068 220.591 441.571 219.962C441.823 219.585 441.445 218.83 440.44 217.825C439.434 216.819 437.674 215.813 435.662 215.31C433.65 214.807 431.639 214.807 430.256 215.184C428.998 215.436 428.244 216.064 428.244 216.442Z" fill="#263238"/>
<path d="M402.846 211.161C403.224 211.915 405.361 211.538 407.876 211.79C410.39 212.041 412.402 212.921 412.905 212.293C413.156 212.041 412.905 211.287 412.15 210.532C411.396 209.778 409.887 209.024 408.253 208.772C406.493 208.521 404.984 209.024 403.978 209.527C402.972 210.155 402.595 210.784 402.846 211.161Z" fill="#263238"/>
<path d="M393.291 206.132C396.938 211.664 408.505 208.27 415.42 204.498C422.712 209.401 433.022 207.264 438.051 199.846C442.074 204.875 450.121 203.24 453.138 197.583C456.03 191.799 454.395 184.004 450.372 178.975C446.349 173.946 440.439 171.431 434.53 170.3C420.7 167.785 405.487 173.066 397.189 185.639C393.291 191.422 391.028 199.217 393.291 206.132Z" fill="#263238"/>
<path d="M431.764 172.186C431.764 172.437 428.495 171.808 423.34 172.688C418.311 173.569 411.144 176.209 405.864 182.118C400.709 188.153 398.32 195.194 397.44 200.349C396.56 205.503 397.189 208.772 397.063 208.772C396.937 208.772 396.812 208.018 396.56 206.509C396.434 205.001 396.309 202.863 396.686 200.223C397.314 194.942 399.578 187.65 404.984 181.364C410.516 175.203 417.934 172.563 423.214 171.934C425.855 171.557 427.992 171.683 429.501 171.808C430.884 171.934 431.764 172.186 431.764 172.186Z" fill="#455A64"/>
<path d="M412.905 198.085C412.779 198.085 412.654 197.457 412.654 196.074C412.528 194.817 412.654 192.931 413.157 190.668C414.162 186.267 417.431 180.106 423.592 176.335C429.879 172.688 436.794 172.814 441.194 174.197C443.457 174.826 445.092 175.706 446.223 176.335C447.355 176.963 447.858 177.466 447.858 177.592C447.732 177.843 445.469 176.083 441.068 175.077C436.794 174.071 430.13 174.071 424.221 177.466C418.312 180.986 415.168 186.77 414.037 191.045C412.779 195.194 413.157 198.085 412.905 198.085Z" fill="#455A64"/>
<path d="M446.223 192.05C445.091 196.954 443.834 201.983 443.834 207.138C443.834 212.167 445.091 217.448 448.36 221.345C453.264 227.254 461.31 229.015 468.728 230.398C472.751 220.465 474.009 209.527 472.249 198.966C471.368 193.811 469.734 188.53 466.088 184.884C460.807 179.478 451.755 178.346 445.343 182.369" fill="#263238"/>
<path d="M450.372 216.316C448.36 220.591 448.611 225.494 449.24 230.146C449.869 234.798 451.126 239.324 451 244.102C451 248.754 449.492 253.783 445.845 256.675C444.84 257.555 443.582 258.183 442.702 259.189C441.822 260.195 441.319 261.704 442.074 262.835C442.828 263.967 444.84 263.967 445.217 262.71L444.965 263.087C444.211 264.47 445.091 266.23 446.726 266.23C449.24 266.23 451.755 264.847 453.389 262.961C455.778 260.195 456.784 256.423 457.412 252.777C459.298 241.713 458.921 230.146 462.064 219.333" fill="#263238"/>
<path d="M407.75 289.238C409.51 296.782 414.539 303.446 421.454 307.092C428.244 310.738 436.667 311.241 443.96 308.475C450.498 305.96 455.778 301.057 460.807 296.279C462.567 307.092 459.55 318.784 452.761 327.334C445.846 336.009 435.284 341.415 424.22 342.17C415.922 342.673 406.996 340.158 401.715 333.62C398.069 329.094 396.56 323.059 396.686 317.276C396.686 311.492 398.195 305.709 399.955 300.177C401.464 295.399 403.852 290.118 408.63 288.735" fill="#66CC99"/>
<path d="M467.471 230.775C472.5 233.541 475.14 239.073 476.146 244.731C477.152 250.263 476.649 256.046 476.901 261.704C477.152 267.362 478.284 273.271 481.804 277.671C485.576 282.323 491.611 284.587 496.891 287.353C508.584 293.639 518.265 304.326 521.785 317.15C525.306 329.974 522.163 344.81 512.482 353.988C503.681 362.412 490.982 365.304 478.912 365.304C470.237 365.304 460.807 363.418 455.401 356.629C450.12 349.965 450.372 340.41 452.258 332.112C454.144 323.814 457.538 315.641 457.79 307.218C456.533 312.498 454.27 317.527 451.126 321.928C450.246 323.185 448.737 324.568 447.354 323.814C445.846 323.059 446.474 320.67 447.103 319.162C457.538 296.028 453.892 249.257 460.053 223.734" fill="#263238"/>
<path d="M458.796 228.135C459.048 228.009 471.243 225.746 469.734 237.69C468.226 249.76 456.407 245.611 456.407 245.359C456.533 244.982 458.796 228.135 458.796 228.135Z" fill="#FFBE9D"/>
<path d="M460.682 241.336C460.682 241.336 460.933 241.461 461.185 241.713C461.562 241.964 462.065 242.09 462.694 241.964C464.077 241.713 465.334 239.827 465.711 237.69C465.837 236.558 465.837 235.552 465.46 234.672C465.208 233.792 464.705 233.038 464.077 232.912C463.448 232.66 462.945 233.038 462.819 233.289C462.568 233.666 462.694 233.792 462.568 233.918C462.568 233.918 462.316 233.666 462.442 233.163C462.568 232.912 462.694 232.66 463.071 232.409C463.448 232.158 463.825 232.158 464.328 232.283C465.208 232.409 465.962 233.415 466.214 234.421C466.591 235.426 466.717 236.684 466.465 237.815C466.088 240.204 464.579 242.342 462.694 242.593C461.813 242.719 461.185 242.342 460.808 241.964C460.682 241.587 460.682 241.336 460.682 241.336Z" fill="#EB996E"/>
<path d="M395.303 315.138C395.177 315.138 396.058 313.63 397.315 311.367C398.572 309.104 400.458 305.96 401.715 302.188C402.973 298.417 403.224 294.771 402.847 292.256C402.47 289.741 401.715 288.233 401.841 288.107C401.841 288.107 402.093 288.484 402.344 289.113C402.595 289.741 402.973 290.873 403.224 292.13C403.727 294.771 403.601 298.542 402.344 302.314C401.087 306.212 399.201 309.355 397.818 311.492C397.063 312.624 396.56 313.504 396.058 314.133C395.68 314.887 395.429 315.264 395.303 315.138Z" fill="#263238"/>
<path d="M401.463 301.308C401.338 301.308 400.961 300.302 399.829 299.548C398.823 298.794 397.692 298.794 397.692 298.668C397.692 298.542 397.943 298.417 398.446 298.417C398.949 298.417 399.578 298.542 400.206 299.045C400.835 299.422 401.212 300.051 401.338 300.554C401.589 300.931 401.589 301.308 401.463 301.308Z" fill="#FAFAFA"/>
<path d="M409.259 301.308C409.133 301.434 408.127 299.674 406.116 298.417C404.23 297.159 402.218 296.908 402.218 296.782C402.218 296.656 404.355 296.531 406.493 297.914C408.63 299.171 409.385 301.308 409.259 301.308Z" fill="#FAFAFA"/>
<path d="M414.162 326.831C414.037 326.831 414.288 324.442 414.917 321.676C415.545 318.91 416.048 316.647 416.3 316.647C416.425 316.647 416.174 319.036 415.545 321.802C414.917 324.568 414.288 326.831 414.162 326.831Z" fill="#FAFAFA"/>
<path d="M433.776 330.603C433.65 330.603 433.524 328.214 433.65 325.197C433.776 322.179 434.027 319.79 434.153 319.79C434.279 319.79 434.404 322.179 434.279 325.197C434.153 328.214 433.901 330.603 433.776 330.603Z" fill="#FAFAFA"/>
<path d="M33.3314 386.551L13.8435 470.914L54.9566 471.04L73.8158 396.86L33.3314 386.551Z" fill="#B78876"/>
<path d="M234.622 282.826C230.725 277.546 226.199 272.642 224.187 266.356C223.181 263.338 222.804 260.195 221.798 257.178C220.792 254.16 218.781 251.268 215.889 250.263C212.997 249.131 210.734 250.263 208.848 252.4L194.641 293.513L202.813 325.071C210.86 323.185 221.044 321.047 228.587 317.653C236.131 314.258 241.16 308.852 241.663 300.554C242.04 294.142 238.52 287.981 234.622 282.826Z" fill="#263238"/>
<path d="M106.63 275.535C106.63 275.535 57.7223 296.783 51.5616 306.464C45.4009 316.019 25.4102 384.541 25.4102 384.541L76.9587 399.754L76.0786 471.042H202.435L201.429 345.314L185.588 275.786C185.588 275.786 157.676 274.026 155.162 272.769C152.396 271.386 106.63 275.535 106.63 275.535Z" fill="#66CC99"/>
<path d="M280.387 101.274C280.764 98.3827 278.753 95.2395 280.261 92.725C281.016 91.342 282.65 90.7133 284.159 90.0847C284.913 89.8332 285.793 89.4561 286.548 89.4561C287.428 89.4561 288.308 89.959 288.559 90.7133C288.937 91.5934 288.308 92.5993 287.554 93.3536C286.925 93.9823 286.045 94.6109 285.668 95.491C285.165 96.7483 285.668 100.52 286.171 101.652C287.051 103.663 290.068 112.841 290.32 115.105" fill="#B78876"/>
<path d="M270.078 102.28C270.204 97.8799 273.85 80.7809 273.975 76.3804C276.867 77.2605 278.627 80.4037 279.256 83.4211C279.885 86.4386 279.507 89.5818 280.01 92.5993C280.765 96.6226 282.776 100.394 285.04 103.915C287.177 107.435 289.44 111.081 290.32 115.105C291.326 119.128 294.972 129.563 292.08 132.581" fill="#B78876"/>
<path d="M269.323 131.701L251.847 214.807C251.218 218.579 185.588 275.785 185.588 275.785L198.538 327.585L284.159 243.976C290.32 237.438 293.715 228.637 293.463 219.585L291.954 141.633L269.323 131.701Z" fill="#B78876"/>
<path d="M266.306 102.783L269.323 131.701L291.954 141.633C291.954 141.633 292.206 139.622 293.211 129.563C294.343 118.499 282.399 113.722 277.118 105.675C274.855 102.155 275.484 95.7425 273.724 87.8216C273.472 86.9415 272.215 81.4095 271.586 78.392C271.209 76.7575 270.329 75.2488 268.82 74.3687C267.814 73.74 266.683 73.3629 265.803 74.3687C264.923 75.2488 266.306 102.783 266.306 102.783Z" fill="#B78876"/>
<path d="M280.387 136.478C282.902 134.341 283.53 130.443 282.524 127.174C281.519 123.905 279.381 121.265 277.244 118.625C274.981 116.11 272.718 113.596 271.335 110.453C270.329 108.315 269.952 105.926 268.82 103.789C267.814 101.652 265.803 99.7656 263.414 99.6399C265.3 111.584 265.3 118.499 269.197 131.575" fill="#B78876"/>
<path d="M265.803 113.344C265.803 113.344 265.677 112.967 265.551 112.338C265.425 111.584 265.174 110.704 264.923 109.572C264.42 107.058 263.665 103.789 262.911 100.143L262.785 99.7656H263.162C264.671 99.6399 266.18 100.269 267.437 101.4C269.449 103.035 270.329 105.423 270.957 107.435C271.586 109.447 272.215 111.333 272.969 112.716C273.724 114.099 274.604 114.979 275.232 115.733C275.735 116.487 275.987 116.865 275.987 116.865C275.987 116.865 275.609 116.487 274.981 115.859C274.352 115.23 273.346 114.35 272.592 112.841C271.712 111.458 271.083 109.572 270.455 107.561C269.826 105.549 268.946 103.412 267.06 101.777C265.928 100.771 264.545 100.269 263.288 100.394L263.54 100.017C265.174 107.686 266.054 113.344 265.803 113.344Z" fill="#7C5142"/>
<path d="M275.986 105.926C275.861 105.926 274.855 100.646 273.849 94.108C272.843 87.5701 272.215 82.2895 272.466 82.1638C272.592 82.1638 273.598 87.4444 274.603 93.9823C275.484 100.646 276.238 105.926 275.986 105.926Z" fill="#7C5142"/>
<path d="M283.153 106.932C283.153 106.932 283.279 107.058 283.279 107.435H283.027C282.65 106.429 281.644 103.16 280.764 99.2629C280.261 96.874 279.884 94.6109 279.633 92.9765C279.381 91.342 279.255 90.3362 279.381 90.3362C279.507 90.3362 280.387 94.2338 281.393 99.1371C282.273 103.035 283.027 106.304 283.279 107.435H283.027C283.153 107.058 283.153 106.932 283.153 106.932Z" fill="#7C5142"/>
<path d="M287.68 122.9C287.554 122.9 287.177 122.271 286.171 121.265C285.291 120.259 283.782 119.128 282.022 118.248C280.136 117.368 278.376 116.99 277.119 116.865C275.736 116.739 274.981 116.865 274.981 116.739C274.981 116.613 275.736 116.362 277.119 116.362C278.502 116.362 280.388 116.613 282.399 117.619C284.285 118.499 285.794 119.882 286.674 120.888C287.428 122.02 287.68 122.774 287.68 122.9Z" fill="#7C5142"/>
<path d="M271.335 133.964C271.209 133.964 270.706 132.707 269.826 130.569C269.072 128.432 268.066 125.414 267.186 121.894C266.431 118.499 265.803 115.356 265.551 113.093C265.3 110.83 265.3 109.321 265.3 109.321C265.426 109.321 265.551 110.704 265.928 112.967C266.306 115.231 266.934 118.374 267.689 121.768C268.443 125.163 269.449 128.18 270.077 130.444C270.958 132.581 271.46 133.838 271.335 133.964Z" fill="#7C5142"/>
<path d="M170.124 277.294C172.261 273.773 177.416 272.642 180.811 274.779C189.989 267.236 199.418 259.943 208.722 252.4C205.705 267.487 203.693 288.484 210.482 302.314C210.482 302.314 219.032 318.155 232.485 315.767L220.415 327.711L201.304 345.438" fill="#66CC99"/>
<path d="M167.106 284.334C166.98 284.334 167.106 281.568 168.866 278.676C170.626 275.785 173.015 274.276 173.141 274.527C173.266 274.653 171.129 276.288 169.495 279.054C167.734 281.694 167.357 284.334 167.106 284.334Z" fill="#263238"/>
<path d="M177.164 293.512C177.164 293.512 176.536 292.506 176.159 290.746C175.656 288.985 175.53 286.345 175.907 283.579C176.41 280.813 177.542 278.424 178.547 276.915C179.553 275.407 180.433 274.652 180.433 274.652C180.559 274.778 179.805 275.532 178.925 277.167C178.044 278.676 177.039 280.939 176.536 283.705C176.033 286.345 176.159 288.86 176.536 290.62C176.787 292.506 177.164 293.512 177.164 293.512Z" fill="#263238"/>
<path d="M223.306 325.95C223.306 325.95 222.3 326.579 220.289 327.207C218.277 327.71 215.134 327.962 211.488 326.956C207.842 325.95 203.944 323.31 200.927 319.412C197.783 315.515 195.772 310.234 194.64 304.702C192.503 293.512 192.503 283.077 193.131 275.659C193.383 271.887 193.886 268.995 194.137 266.858C194.263 265.852 194.514 264.972 194.514 264.469C194.64 263.966 194.64 263.589 194.766 263.715C194.766 263.715 194.766 263.966 194.64 264.595C194.514 265.224 194.514 265.978 194.389 266.984C194.137 268.995 193.76 272.013 193.509 275.785C193.006 283.203 193.006 293.512 195.143 304.702C196.275 310.234 198.286 315.263 201.304 319.161C204.196 323.058 207.967 325.573 211.488 326.705C215.008 327.836 218.151 327.585 220.163 327.207C222.3 326.453 223.306 325.824 223.306 325.95Z" fill="#FAFAFA"/>
<path d="M77.0847 420.749C76.959 420.749 76.7075 402.896 76.7075 380.894C76.7075 358.891 76.8332 341.038 77.0847 341.038C77.2104 341.038 77.4619 358.891 77.4619 380.894C77.4619 402.896 77.3362 420.749 77.0847 420.749Z" fill="#263238"/>
<path d="M76.079 327.207C75.9532 327.207 75.9532 325.447 75.3246 322.681C75.0731 321.297 74.4445 319.663 73.8159 317.903C73.0615 316.143 72.0557 314.382 70.6727 312.622C69.2896 310.862 67.9066 309.479 66.3979 308.222C64.8892 307.09 63.5062 306.084 62.2489 305.456C59.7343 304.073 57.9741 303.696 57.9741 303.57C57.9741 303.57 58.477 303.57 59.2314 303.821C59.6086 303.947 60.1115 304.073 60.6144 304.324C61.1173 304.576 61.746 304.701 62.3746 305.079C63.6319 305.707 65.1406 306.587 66.6494 307.719C68.1581 308.976 69.6668 310.359 71.0498 312.119C72.4329 313.88 73.4387 315.765 74.193 317.526C74.9474 319.286 75.4503 320.92 75.7018 322.429C75.8275 323.183 75.9532 323.812 75.9532 324.315C76.079 324.944 76.079 325.321 76.079 325.824C76.2047 326.704 76.2047 327.207 76.079 327.207Z" fill="#263238"/>
<path d="M162.203 275.031C162.203 275.031 162.329 275.408 162.454 276.036C162.58 276.791 162.706 277.797 162.832 279.054C162.957 281.694 162.706 285.717 161.323 290.369C159.814 294.896 157.048 300.176 152.27 304.451C147.493 308.851 140.703 311.743 133.411 312.372C125.993 312.875 118.827 310.989 113.546 307.343C108.14 303.822 104.619 299.045 102.482 294.77C100.345 290.369 99.4646 286.598 99.2131 283.831C99.0874 282.448 99.0874 281.443 99.0874 280.688C99.0874 279.934 99.0874 279.557 99.0874 279.557C99.0874 279.557 99.0874 279.934 99.2131 280.688C99.2131 281.443 99.3389 282.448 99.4646 283.706C99.8418 286.346 100.722 290.118 102.859 294.393C104.997 298.542 108.643 303.194 113.923 306.714C119.204 310.234 126.119 312.12 133.411 311.492C140.703 310.863 147.241 308.097 151.893 303.822C156.545 299.673 159.437 294.518 160.946 289.992C162.454 285.466 162.706 281.568 162.706 278.928C162.706 277.545 162.58 276.539 162.454 275.911C162.203 275.408 162.203 275.031 162.203 275.031Z" fill="#263238"/>
<path d="M76.0792 384.037C76.0792 384.163 65.6438 380.894 52.9452 376.745C40.2467 372.47 29.937 368.95 29.937 368.824C29.937 368.699 40.3724 371.968 53.071 376.117C65.7695 380.266 76.0792 383.912 76.0792 384.037Z" fill="#FAFAFA"/>
<path d="M200.172 366.56C200.172 366.686 172.387 367.063 138.189 367.188C103.99 367.314 76.2046 367.314 76.2046 367.063C76.2046 366.937 103.865 366.56 138.189 366.434C172.387 366.434 200.172 366.434 200.172 366.56Z" fill="#FAFAFA"/>
<path d="M200.801 377.5C200.801 377.626 172.889 377.877 138.565 377.877C104.241 377.877 76.3298 377.751 76.3298 377.5C76.3298 377.249 104.116 377.249 138.565 377.249C172.889 377.249 200.801 377.374 200.801 377.5Z" fill="#FAFAFA"/>
<path d="M183.703 390.828C183.703 390.828 183.577 391.205 183.325 391.834C183.074 392.588 182.697 393.468 182.194 394.726C181.942 395.354 181.691 395.983 181.314 396.737C180.937 397.492 180.559 398.246 180.182 399.126C179.302 400.886 178.548 402.772 177.29 404.91C176.662 405.916 176.159 407.047 175.53 408.179C174.902 409.31 174.147 410.442 173.393 411.699C172.01 414.088 170.25 416.602 168.364 419.117C164.592 424.146 160.066 429.552 154.911 434.707C149.63 439.862 144.224 444.137 139.069 447.909C136.429 449.669 133.914 451.429 131.525 452.812C130.268 453.566 129.137 454.195 128.005 454.824C126.873 455.452 125.742 455.955 124.61 456.584C122.473 457.715 120.461 458.596 118.827 459.35C117.947 459.727 117.192 460.104 116.438 460.482C115.684 460.733 114.929 460.984 114.301 461.236C113.043 461.739 112.163 461.99 111.409 462.367C110.78 462.619 110.403 462.745 110.403 462.745C110.403 462.745 110.78 462.619 111.409 462.242C112.163 461.99 113.043 461.613 114.301 461.11C114.929 460.859 115.558 460.607 116.312 460.23C117.067 459.853 117.821 459.476 118.701 459.098C120.461 458.218 122.347 457.464 124.485 456.207C125.49 455.704 126.622 455.075 127.754 454.447C128.885 453.818 130.017 453.064 131.274 452.435C133.663 451.052 136.177 449.292 138.818 447.531C143.972 443.885 149.379 439.485 154.534 434.456C159.688 429.301 164.215 424.02 167.987 418.991C169.747 416.351 171.633 413.962 173.016 411.573C173.77 410.442 174.524 409.31 175.153 408.179C175.782 407.047 176.41 405.916 177.039 404.91C178.296 402.898 179.176 400.886 180.056 399.252C180.434 398.372 180.937 397.617 181.188 396.863C181.565 396.109 181.817 395.48 182.068 394.851C182.571 393.72 182.948 392.714 183.325 392.085C183.451 391.205 183.703 390.828 183.703 390.828Z" fill="#263238"/>
<g opacity="0.3">
<path d="M178.547 401.766C170.123 412.075 161.197 419.493 148.875 424.271C142.966 426.534 136.68 428.169 130.896 430.809C125.113 433.575 119.706 437.598 117.192 443.507C115.18 448.034 116.186 454.823 120.964 455.829C122.85 456.206 124.736 455.577 126.37 454.949C151.013 446.148 167.106 423.642 178.547 401.766Z" fill="black"/>
</g>
<path d="M90.6628 178.095C85.3823 182.244 85.0051 190.04 85.2565 196.829C85.508 203.618 85.6337 211.288 80.7303 215.94C76.707 219.837 69.6663 221.22 68.5347 226.626C68.0318 229.141 69.1633 232.033 71.4264 233.29C73.6896 234.673 76.707 234.422 78.7187 232.787C76.9585 237.062 77.8386 242.468 81.359 245.36C85.0051 248.126 91.2915 246.869 92.6745 242.468C91.7944 245.36 93.806 248.755 96.6978 249.509C99.5895 250.138 102.984 248 103.487 244.983" fill="#263238"/>
<path d="M167.609 226.878C168.74 230.272 172.889 232.284 176.284 231.152C179.678 229.895 181.564 225.746 180.181 222.351C179.175 219.711 176.409 217.825 176.284 214.933C176.158 211.539 179.678 209.276 182.822 208.018C185.965 206.635 189.611 205.001 190.114 201.606C190.617 198.337 187.851 195.697 185.462 193.434C183.073 191.171 180.936 187.65 182.57 184.759C183.45 183.25 185.085 182.496 186.216 181.238C188.605 178.472 187.725 173.695 184.833 171.306C182.067 168.917 177.918 168.414 174.272 168.791C170.626 169.294 167.106 170.677 163.459 171.557C151.515 174.449 138.44 172.06 128.256 165.271" fill="#263238"/>
<path d="M94.3091 203.995L107.259 278.929C109.522 292.131 122.095 300.932 135.296 298.543C147.618 296.405 156.167 285.09 155.036 272.643C154.407 265.979 153.904 260.447 153.904 260.447C153.904 260.447 172.638 255.669 171.003 236.559C170.249 227.381 167.106 208.521 163.962 191.422C160.694 173.066 143.846 160.368 125.364 162.254L123.478 162.379C103.864 165.522 90.663 184.382 94.3091 203.995Z" fill="#B78876"/>
<path d="M160.064 203.87C160.315 205.253 159.184 206.636 157.675 206.887C156.166 207.139 154.783 206.133 154.657 204.75C154.406 203.367 155.537 201.984 157.046 201.732C158.555 201.481 159.812 202.487 160.064 203.87Z" fill="#263238"/>
<path d="M160.818 201.229C160.567 201.606 158.304 200.349 155.412 200.601C152.52 200.852 150.509 202.612 150.131 202.235C150.006 202.109 150.257 201.355 151.137 200.601C152.017 199.846 153.526 198.966 155.286 198.84C157.172 198.715 158.681 199.218 159.687 199.846C160.693 200.475 161.07 201.104 160.818 201.229Z" fill="#263238"/>
<path d="M131.398 207.264C131.65 208.647 130.518 210.03 129.009 210.282C127.501 210.533 126.118 209.527 125.992 208.144C125.74 206.761 126.872 205.378 128.381 205.127C129.764 204.75 131.147 205.756 131.398 207.264Z" fill="#263238"/>
<path d="M132.153 204.624C131.901 205.001 129.638 203.744 126.746 203.995C123.854 204.247 121.843 206.007 121.466 205.63C121.34 205.504 121.591 204.75 122.471 203.995C123.352 203.241 124.86 202.361 126.621 202.235C128.506 202.109 130.015 202.612 131.021 203.241C131.901 203.87 132.278 204.373 132.153 204.624Z" fill="#263238"/>
<path d="M144.851 225.243C144.851 225.118 146.611 224.615 149.503 223.86C150.257 223.735 150.886 223.483 151.012 222.98C151.137 222.477 150.76 221.597 150.257 220.843C149.377 219.083 148.497 217.323 147.491 215.311C143.594 207.516 140.702 201.104 141.079 200.852C141.456 200.727 144.725 206.887 148.623 214.682C149.503 216.568 150.509 218.454 151.263 220.214C151.64 221.094 152.269 221.975 151.892 223.106C151.766 223.735 151.263 224.112 150.76 224.363C150.257 224.615 149.88 224.615 149.503 224.615C146.737 225.243 144.851 225.495 144.851 225.243Z" fill="#263238"/>
<path d="M131.776 193.057C131.524 193.937 128.632 193.811 125.238 194.566C121.843 195.194 119.203 196.577 118.574 195.823C118.323 195.446 118.7 194.692 119.831 193.811C120.837 192.931 122.598 192.051 124.609 191.548C126.621 191.171 128.632 191.297 129.89 191.674C131.147 192.051 131.901 192.68 131.776 193.057Z" fill="#263238"/>
<path d="M158.933 192.931C158.43 193.686 156.419 193.183 153.904 193.308C151.515 193.434 149.504 194.188 148.875 193.56C148.623 193.183 148.875 192.554 149.755 191.8C150.635 191.045 152.018 190.417 153.653 190.291C155.287 190.165 156.796 190.668 157.802 191.297C158.807 191.925 159.185 192.554 158.933 192.931Z" fill="#263238"/>
<path d="M112.917 180.987C112.917 181.113 112.791 181.113 112.917 180.987C110.025 183.753 108.39 187.399 108.139 191.297C108.139 191.422 108.139 191.548 108.139 191.674C107.887 197.206 108.642 202.738 108.39 208.27C108.139 213.802 106.756 219.46 103.11 223.609C101.601 225.369 98.835 226.626 97.2005 224.992C96.5719 224.363 96.4461 223.483 96.3204 222.603C94.0573 209.527 89.2796 198.212 88.0224 184.507C87.6452 180.735 89.0282 177.089 91.9199 174.575C94.5602 172.186 97.9549 169.797 101.224 170.929C104.618 172.186 109.27 177.718 112.036 179.981" fill="#263238"/>
<path d="M101.475 211.916C101.098 211.79 88.0222 209.276 89.6567 222.352C91.2912 235.302 103.99 231.027 103.99 230.65C104.115 230.272 101.475 211.916 101.475 211.916Z" fill="#B78876"/>
<path d="M99.4634 226.249C99.4634 226.249 99.212 226.375 98.9605 226.626C98.5833 226.878 97.9547 227.004 97.3261 226.878C95.943 226.501 94.4343 224.489 94.0571 222.226C93.9314 221.094 93.9314 219.837 94.3086 218.957C94.56 217.951 95.063 217.197 95.8173 216.945C96.446 216.694 97.0746 217.071 97.2003 217.448C97.4518 217.825 97.3261 218.077 97.4518 218.077C97.4518 218.077 97.7032 217.825 97.5775 217.323C97.4518 217.071 97.3261 216.82 96.9489 216.568C96.5717 216.317 96.0688 216.317 95.6916 216.442C94.6858 216.694 93.9314 217.7 93.5542 218.706C93.177 219.837 93.0513 221.094 93.177 222.477C93.5542 225.118 95.3144 227.381 97.2003 227.632C98.2062 227.758 98.8348 227.381 99.212 227.004C99.4634 226.501 99.4634 226.249 99.4634 226.249Z" fill="#7C5142"/>
<path d="M100.973 173.066C97.2007 168.163 105.373 159.865 111.534 157.099C117.82 154.458 126.495 156.721 133.159 158.23C137.308 159.236 141.583 160.619 145.732 160.116C148.624 159.739 151.138 158.356 153.778 157.224C156.419 155.967 159.059 154.835 161.951 154.71C164.842 154.584 167.86 155.841 169.243 158.356C170.626 160.87 169.369 164.642 166.603 165.271C169.997 162.882 175.529 165.019 176.535 169.043C177.541 173.066 173.643 177.467 169.494 176.964C171.255 175.329 174.272 177.467 174.272 179.73C174.272 182.118 172.386 184.004 170.249 185.136C165.094 188.028 158.682 187.902 152.773 186.519C146.989 185.136 141.457 182.747 135.674 181.238C129.89 179.73 120.209 176.964 114.803 179.478C110.779 181.364 108.391 186.519 106.002 185.765C103.613 184.884 101.978 182.747 101.35 180.358C100.721 178.095 100.847 175.581 100.973 173.066Z" fill="#263238"/>
<path d="M101.727 214.179C102.104 221.094 102.481 228.009 104.116 234.673C105.75 241.336 108.642 247.874 113.42 252.903C119.706 259.316 128.004 265.476 136.931 266.985C146.612 268.619 158.556 266.608 166.477 260.699C170.249 257.933 173.015 251.898 171.758 247.371C174.901 245.863 177.164 242.594 177.415 239.073C177.667 235.553 175.529 231.152 172.638 230.65C174.775 230.272 175.278 227.003 174.524 225.118C173.769 223.106 171.003 222.729 168.866 223.106C166.728 223.483 164.968 224.74 163.208 225.998C161.448 227.255 159.813 228.638 157.802 229.267C151.012 231.404 144.223 225.495 137.182 225.746C130.77 225.998 125.112 231.278 118.7 230.398C115.18 229.895 112.162 227.506 110.151 224.489C108.139 221.471 109.019 210.407 108.265 206.887" fill="#263238"/>
<g opacity="0.6">
<path d="M153.024 244.102C153.024 244.228 152.396 243.851 151.516 243.599C150.51 243.348 149.252 243.097 147.744 243.348C146.235 243.599 145.103 244.228 144.223 244.857C143.469 245.485 142.966 245.863 142.966 245.863C142.966 245.863 143.218 245.234 143.972 244.48C144.726 243.725 145.984 242.971 147.618 242.719C149.252 242.468 150.635 242.719 151.641 243.097C152.647 243.599 153.024 244.102 153.024 244.102Z" fill="#455A64"/>
</g>
<path d="M139.32 229.644C139.822 229.518 140.074 232.787 143.091 234.798C145.983 236.81 149.378 236.056 149.504 236.559C149.629 236.81 148.749 237.187 147.366 237.439C145.983 237.565 143.846 237.313 142.086 236.182C140.325 234.924 139.445 233.164 139.194 231.907C138.817 230.524 139.068 229.644 139.32 229.644Z" fill="white"/>
<path d="M129.765 264.848C129.765 264.848 130.016 264.973 130.645 265.099C131.148 265.351 132.028 265.602 133.034 265.853C135.171 266.482 138.188 267.111 142.086 267.237C143.972 267.362 146.109 267.362 148.372 267.111C150.636 266.985 153.024 266.482 155.413 265.728C157.802 264.973 160.317 263.842 162.705 262.459C165.094 260.95 167.232 259.19 168.992 256.801C171.003 254.035 172.009 250.515 171.506 247.371V247.12L171.758 246.994C173.392 246.366 174.65 245.108 175.655 243.725C176.158 243.097 176.535 242.342 176.913 241.588C177.29 240.834 177.416 240.079 177.416 239.325C177.667 236.182 176.284 233.29 174.398 231.655L174.272 231.53L174.398 231.404C175.655 229.77 175.781 227.758 175.152 226.249C174.524 224.74 173.267 223.86 172.261 223.357C171.129 222.98 170.249 222.98 169.62 222.98C168.992 223.106 168.74 223.106 168.74 223.106C168.74 223.106 168.992 222.98 169.62 222.854C170.249 222.729 171.255 222.729 172.386 223.106C173.518 223.483 174.901 224.363 175.53 225.998C176.158 227.632 176.158 229.895 174.775 231.655V231.278C176.913 233.038 178.296 235.93 178.044 239.325C177.919 240.205 177.793 240.959 177.416 241.839C177.038 242.594 176.661 243.348 176.033 244.103C175.027 245.486 173.644 246.743 171.884 247.623L172.009 247.246C172.638 250.64 171.506 254.287 169.495 257.178C167.735 259.693 165.471 261.579 163.083 263.087C160.694 264.596 158.179 265.728 155.665 266.482C153.15 267.236 150.761 267.614 148.498 267.865C146.235 268.117 144.098 268.117 142.086 267.865C138.188 267.614 135.045 266.859 133.034 266.231C132.028 265.853 131.148 265.602 130.645 265.351C130.016 264.973 129.765 264.848 129.765 264.848Z" fill="#455A64"/>
<path d="M72.8099 231.655C72.8099 231.655 72.5585 231.655 72.1813 231.278C71.8041 231.027 71.1755 230.524 70.924 229.644C70.5468 228.764 70.4211 227.632 70.6726 226.249C70.924 224.866 71.9299 223.609 73.1871 222.603C74.4444 221.597 76.2046 220.717 77.9648 220.088C79.725 219.46 81.7366 218.831 83.4968 217.699C85.257 216.568 86.7658 214.808 87.6459 212.796C88.6517 210.659 89.0289 208.27 89.1546 205.881C89.2803 200.978 88.1488 196.326 88.023 191.925C87.7716 187.65 88.6517 183.501 90.6633 180.861C92.5493 178.095 95.1895 176.838 96.9497 176.586C97.8298 176.335 98.5842 176.461 99.0871 176.461C99.59 176.586 99.8415 176.586 99.8415 176.586C99.8415 176.712 98.8357 176.335 97.0755 176.838C95.3153 177.215 92.9264 178.472 91.0405 181.113C89.1546 183.753 88.4002 187.65 88.6517 191.925C88.7774 196.2 89.909 200.852 89.909 205.881C89.7832 208.396 89.4061 210.91 88.4002 213.047C87.3944 215.185 85.8857 217.071 83.9997 218.202C82.1138 219.334 80.1022 219.963 78.342 220.591C76.5818 221.22 74.9473 221.974 73.69 222.98C72.4328 223.986 71.5527 225.117 71.3012 226.375C71.0498 227.632 71.1755 228.764 71.4269 229.518C71.8041 231.278 72.9357 231.655 72.8099 231.655Z" fill="#455A64"/>
<path d="M167.106 165.145C167.106 165.145 167.232 165.02 167.735 164.894C167.986 164.768 168.112 164.768 168.489 164.642C168.74 164.517 169.118 164.517 169.495 164.391C171.003 164.14 173.644 164.517 175.907 166.654C177.416 168.54 178.296 171.306 177.793 174.449C177.416 177.592 175.53 180.736 172.638 182.999C169.746 185.262 165.849 186.519 161.7 186.771C157.551 187.022 153.276 186.393 149.001 185.388C141.96 183.753 135.674 180.736 130.519 177.215C127.879 175.581 125.49 173.946 122.975 172.815C120.461 171.683 117.946 171.055 115.683 170.929C111.031 170.677 107.385 171.809 104.996 172.94C102.607 174.072 101.476 174.952 101.476 174.952C101.476 174.952 102.482 173.946 104.87 172.689C107.259 171.557 110.905 170.174 115.683 170.426C118.072 170.552 120.586 171.055 123.227 172.312C125.741 173.443 128.256 175.078 130.896 176.712C136.051 180.107 142.212 183.124 149.127 184.759C153.402 185.765 157.551 186.393 161.574 186.142C165.597 185.89 169.369 184.633 172.135 182.496C175.027 180.358 176.787 177.341 177.164 174.323C177.541 171.306 176.787 168.666 175.404 166.78C173.392 164.642 170.878 164.265 169.243 164.391C167.86 164.894 167.106 165.271 167.106 165.145Z" fill="#455A64"/>
<path d="M160.442 154.081C160.442 154.081 160.568 155.213 159.814 156.973C159.185 158.733 157.425 161.122 154.407 162.882C152.899 163.762 151.138 164.391 149.127 164.768C147.115 165.145 144.978 165.145 142.715 164.768C138.188 164.265 133.536 162.505 128.759 160.871C123.855 159.362 118.952 158.482 114.677 159.362C110.402 160.242 107.008 162.631 104.745 165.145C102.482 167.66 101.35 170.174 100.721 171.935C100.093 173.695 100.093 174.701 99.967 174.701C99.967 174.701 99.967 174.449 100.093 173.946C100.093 173.443 100.344 172.689 100.596 171.809C101.099 170.049 102.23 167.408 104.493 164.894C106.756 162.379 110.151 159.739 114.677 158.859C119.203 157.853 124.233 158.733 129.136 160.368C134.039 161.876 138.691 163.637 143.092 164.265C145.229 164.517 147.367 164.642 149.252 164.265C151.138 164.014 152.899 163.385 154.407 162.505C157.299 160.871 159.059 158.608 159.814 156.973C160.317 155.213 160.317 154.081 160.442 154.081Z" fill="#455A64"/>
<path d="M271.334 401.766C274.854 402.269 277.998 404.532 280.135 407.423C282.272 410.315 283.404 413.836 283.907 417.356C285.038 424.145 283.153 431.94 280.638 438.478C273.597 435.209 269.951 427.037 268.317 422.888C265.928 416.099 265.299 402.394 271.334 401.766Z" fill="#FFBF5A"/>
<path d="M291.074 448.034C288.811 444.639 288.936 440.113 290.822 436.592C292.708 433.072 296.229 430.557 300.126 429.426C301.886 428.923 304.024 428.797 305.533 429.803C306.916 430.809 307.544 432.695 307.293 434.455C307.041 436.215 306.161 437.724 305.155 439.107C301.384 443.885 296.983 447.782 291.074 448.034Z" fill="#FFBF5A"/>
<path d="M289.314 469.785C289.314 469.785 289.188 469.282 289.062 468.402C288.936 467.522 288.811 466.139 288.811 464.504C288.685 461.235 288.559 456.458 289.565 451.428C290.697 446.399 293.085 442.125 295.474 439.736C296.606 438.479 297.737 437.724 298.617 437.221C299.372 436.718 299.875 436.467 299.875 436.593C300 436.718 298.115 437.724 295.851 440.113C293.588 442.502 291.325 446.651 290.319 451.554C289.188 456.458 289.314 461.11 289.314 464.504C289.314 467.647 289.439 469.785 289.314 469.785Z" fill="#263238"/>
<path d="M272.969 412.201C272.969 412.201 273.346 412.956 273.849 414.464C274.352 415.973 275.106 417.985 275.986 420.625C277.746 425.906 280.009 433.198 282.272 441.244C284.535 449.417 286.421 456.835 287.679 462.115C288.307 464.756 288.81 467.019 289.187 468.527C289.565 470.036 289.69 470.916 289.565 470.916C289.565 470.916 289.313 470.162 288.81 468.653C288.433 467.019 287.804 464.881 287.176 462.367C285.793 457.086 283.781 449.668 281.518 441.496C279.255 433.324 277.118 426.031 275.483 420.751C274.729 418.236 274.1 416.099 273.597 414.464C273.22 412.956 272.969 412.201 272.969 412.201Z" fill="#263238"/>
<path d="M281.77 454.571C278.375 446.776 270.957 440.993 262.659 439.358C260.522 438.981 257.881 438.981 256.75 440.867C255.618 442.627 256.624 445.142 257.881 446.776C263.162 454.068 273.094 457.463 281.77 455.074" fill="#FFBF5A"/>
<path d="M265.048 445.519C265.048 445.519 265.551 445.519 266.431 445.645C266.934 445.645 267.437 445.771 268.065 446.022C268.694 446.148 269.448 446.399 270.203 446.651C271.711 447.154 273.472 447.908 275.358 449.04C277.118 450.171 279.129 451.554 280.89 453.314C282.65 455.075 284.159 456.961 285.29 458.721C286.422 460.481 287.302 462.241 287.805 463.75C288.182 464.504 288.308 465.259 288.559 465.762C288.81 466.39 288.936 466.893 288.936 467.396C289.062 468.276 289.188 468.779 289.062 468.779C288.936 468.779 288.559 466.893 287.302 464.001C286.673 462.493 285.793 460.858 284.661 459.098C283.53 457.338 282.021 455.578 280.387 453.943C278.626 452.309 276.866 450.926 275.106 449.794C273.346 448.663 271.586 447.908 270.203 447.28C266.934 445.897 265.048 445.645 265.048 445.519Z" fill="#263238"/>
</svg>
