<svg width="20" height="18" viewBox="0 0 20 18" fill="none" xmlns="http://www.w3.org/2000/svg">
<path fill-rule="evenodd" clip-rule="evenodd" d="M11.708 10.184H18.6888C19.0272 10.184 19.3234 9.90135 19.3234 9.57828V8.36674C19.3234 8.04366 19.0272 7.76097 18.6888 7.76097H11.708C11.4542 7.76097 11.2849 7.59943 11.2849 7.35712V0.69366C11.2849 0.370583 10.9888 0.0878906 10.6503 0.0878906H9.38108C9.04262 0.0878906 8.74647 0.370583 8.74647 0.69366V7.35712C8.74647 7.59943 8.57724 7.76097 8.32339 7.76097H1.34262C1.00416 7.76097 0.708008 8.04366 0.708008 8.36674V9.57828C0.708008 9.90135 1.00416 10.184 1.34262 10.184H8.32339C8.57724 10.184 8.74647 10.3456 8.74647 10.5879V17.2514C8.74647 17.5744 9.04262 17.8571 9.38108 17.8571H10.6503C10.9888 17.8571 11.2849 17.5744 11.2849 17.2514V10.5879C11.2849 10.3456 11.4542 10.184 11.708 10.184Z" fill="#706E6B"/>
</svg>
