<svg width="19" height="18" viewBox="0 0 19 18" fill="none" xmlns="http://www.w3.org/2000/svg">
<path fill-rule="evenodd" clip-rule="evenodd" d="M10.032 0.605537L11.7128 6.08631C11.7858 6.30554 12.0051 6.41515 12.2243 6.41515H17.7051C18.2531 6.41515 18.4724 7.14592 18.0339 7.47477L13.5762 10.7632C13.3935 10.9094 13.3204 11.1652 13.3935 11.3844L15.5128 17.0113C15.6589 17.5228 15.1108 17.9613 14.6724 17.6325L9.88583 14.0517C9.70314 13.9055 9.44737 13.9055 9.22814 14.0517L4.40506 17.6325C3.9666 17.9613 3.38198 17.5228 3.56468 17.0113L5.61083 11.3844C5.68391 11.1652 5.61083 10.9094 5.42814 10.7632L0.970445 7.47477C0.531984 7.14592 0.787753 6.41515 1.29929 6.41515H6.78006C7.03583 6.41515 7.21852 6.34207 7.2916 6.08631L9.00891 0.568999C9.15506 0.0574601 9.88583 0.0939986 10.032 0.605537V0.605537Z" fill="#706E6B"/>
</svg>
